<svg width="261" height="244" viewBox="0 0 261 244" fill="none" xmlns="http://www.w3.org/2000/svg">
<path d="M138.117 119.995H123.312V153.721L88.4629 188.57C91.6177 192.888 93.4313 198.184 93.4313 203.82V204.539L130.715 167.255L166.562 203.103C166.741 197.393 168.774 192.063 172.176 187.78L138.117 153.721V119.995Z" fill="white"/>
<path d="M156 136H105V187H156V136Z" fill="white" fill-opacity="0.01"/>
<path d="M130.5 182.75C142.236 182.75 151.75 173.236 151.75 161.5C151.75 149.764 142.236 140.25 130.5 140.25C118.764 140.25 109.25 149.764 109.25 161.5C109.25 173.236 118.764 182.75 130.5 182.75Z" fill="#2F88FF" stroke="white" stroke-width="4"/>
<path d="M136.875 155.125V167.875" stroke="white" stroke-width="4" stroke-linecap="round"/>
<path d="M143.25 159.375V163.625" stroke="white" stroke-width="4" stroke-linecap="round"/>
<path d="M124.125 155.125V167.875" stroke="white" stroke-width="4" stroke-linecap="round"/>
<path d="M117.75 159.375V163.625" stroke="white" stroke-width="4" stroke-linecap="round"/>
<path d="M130.5 150.875V172.125" stroke="white" stroke-width="4" stroke-linecap="round"/>
<path d="M216.334 174.186C228.704 174.186 238.767 164.122 238.767 151.752C238.767 139.383 228.704 129.319 216.334 129.319C203.964 129.319 193.901 139.383 193.901 151.752C193.901 164.122 203.964 174.186 216.334 174.186Z" fill="#E1BBA6"/>
<path d="M246.437 185.057L246.4 185.045L234.534 183.08C233.524 182.769 232.445 183.304 232.082 184.3L218.618 221.24C217.841 223.371 214.827 223.371 214.051 221.24L200.587 184.3C200.294 183.495 199.535 182.991 198.721 182.991C198.529 182.991 198.332 183.02 198.138 183.08L186.269 185.042C178.09 187.767 172.626 195.35 172.626 203.923V234.66C172.626 239.266 176.36 243 180.966 243H251.694C256.3 243 260.034 239.266 260.034 234.66V203.821C260.036 195.285 254.55 187.715 246.437 185.057Z" fill="#373837"/>
<path d="M221.846 182.991C221.262 182.356 220.41 182.036 219.547 182.036H213.115C212.252 182.036 211.4 182.355 210.816 182.991C209.913 183.975 209.782 185.395 210.423 186.506L213.862 191.69L212.252 205.269L215.422 213.701C215.73 214.549 216.93 214.549 217.239 213.701L220.408 205.269L218.799 191.69L222.237 186.506C222.88 185.396 222.749 183.975 221.846 182.991Z" fill="#FF4646"/>
<path d="M173 213.306C173 202.259 173.121 200.167 174.5 196C176 191.467 181.619 188.303 181.619 197.888C183.342 255.395 179.5 241.5 176 241C171.29 240.327 173 224.354 173 213.306Z" fill="#444849" fill-opacity="0.5"/>
<path d="M259.544 221.472C259.544 232.519 259.423 234.612 258.044 238.779C256.544 243.312 250.925 246.476 250.925 236.891C249.202 179.384 253.209 190.33 256 192.5C260.5 196 259.544 210.425 259.544 221.472Z" fill="#444849" fill-opacity="0.5"/>
<path d="M43.9077 174.186C56.2774 174.186 66.341 164.122 66.341 151.752C66.341 139.383 56.2774 129.319 43.9077 129.319C31.5379 129.319 21.4744 139.383 21.4744 151.752C21.4744 164.122 31.5379 174.186 43.9077 174.186Z" fill="#E1BBA6"/>
<path d="M73.8106 185.057L73.773 185.045L61.9072 183.08C60.8976 182.769 59.818 183.304 59.455 184.3L45.9917 221.24C45.2148 223.371 42.2009 223.371 41.424 221.24L27.9607 184.3C27.6676 183.495 26.9082 182.991 26.0946 182.991C25.9021 182.991 25.7053 183.02 25.5111 183.08L13.6426 185.042C5.46441 187.767 0 195.35 0 203.923V234.66C0 239.266 3.73393 243 8.34009 243H79.0686C83.6747 243 87.4087 239.266 87.4087 234.66V203.821C87.4087 195.285 81.9233 187.715 73.8106 185.057Z" fill="#373837"/>
<path d="M49.219 182.991C48.6355 182.356 47.7834 182.036 46.9207 182.036H40.4879C39.6252 182.036 38.7731 182.355 38.1896 182.991C37.2867 183.975 37.1555 185.395 37.7968 186.506L41.235 191.69L39.6252 205.269L42.7949 213.701C43.1037 214.549 44.3032 214.549 44.612 213.701L47.7816 205.269L46.1719 191.69L49.6101 186.506C50.2522 185.396 50.1219 183.975 49.219 182.991Z" fill="#FF4646"/>
<path d="M0.302718 213.667C0.302718 202.62 0.42384 200.528 1.80283 196.361C3.30283 191.828 8.92139 188.664 8.92139 198.249C10.6451 255.756 6.80257 241.861 3.30273 241.361C-1.40771 240.688 0.302718 224.714 0.302718 213.667Z" fill="#444849" fill-opacity="0.5"/>
<path d="M87.0351 221.222C87.0351 232.269 86.914 234.361 85.535 238.528C84.035 243.061 78.4164 246.225 78.4164 236.641C76.6927 179.133 80.7002 190.079 83.4909 192.25C87.991 195.75 87.0351 210.175 87.0351 221.222Z" fill="#444849" fill-opacity="0.5"/>
<path d="M130.719 44.8666C143.089 44.8666 153.152 34.803 153.152 22.4333C153.152 10.0636 143.089 0 130.719 0C118.349 0 108.286 10.0636 108.286 22.4333C108.286 34.803 118.349 44.8666 130.719 44.8666Z" fill="#E1BBA6"/>
<path d="M95.1968 113.682H165.925C170.531 113.682 174.265 109.948 174.265 105.342V74.5028C174.265 65.9658 168.779 58.3965 160.666 55.7387L160.629 55.7264L148.763 53.7615C147.753 53.4509 146.674 53.9854 146.311 54.9819L132.848 91.9222C132.071 94.0534 129.057 94.0534 128.28 91.9222L114.817 54.9819C114.523 54.177 113.764 53.6731 112.95 53.6731C112.758 53.6731 112.561 53.702 112.367 53.7615L100.499 55.7238C92.3194 58.449 86.855 66.0314 86.855 74.6051V105.342C86.8567 109.948 90.5907 113.682 95.1968 113.682Z" fill="#373837"/>
<path d="M136.076 53.646C135.492 53.0109 134.64 52.6907 133.777 52.6907H127.345C126.482 52.6907 125.63 53.01 125.046 53.646C124.143 54.6294 124.012 56.0502 124.653 57.1612L128.092 62.3448L126.482 75.9245L129.652 84.3564C129.96 85.2042 131.16 85.2042 131.47 84.3564L134.639 75.9245L133.029 62.3448L136.468 57.1612C137.109 56.0502 136.979 54.6294 136.076 53.646Z" fill="#FF4646"/>
<path d="M87.3027 83.6673C87.3027 72.6202 87.4238 70.5281 88.8028 66.3609C90.3028 61.828 95.9214 58.6641 95.9214 68.2487C97.6451 125.756 93.8026 111.861 90.3027 111.361C85.5923 110.688 87.3027 94.7144 87.3027 83.6673Z" fill="#444849" fill-opacity="0.5"/>
<path d="M174.035 92.2219C174.035 103.269 173.914 105.361 172.535 109.528C171.035 114.061 165.416 117.225 165.416 107.641C163.693 50.1331 167.7 61.0791 170.491 63.2495C174.991 66.7495 174.035 81.1748 174.035 92.2219Z" fill="#444849" fill-opacity="0.5"/>
</svg>
