<svg xmlns="http://www.w3.org/2000/svg" viewBox="0 0 129.67 76.07"><defs><style>.cls-1{fill:#808285;}.cls-1,.cls-2,.cls-3,.cls-4,.cls-5,.cls-6,.cls-7{stroke:#231f20;}.cls-1,.cls-2,.cls-3,.cls-4,.cls-5,.cls-6,.cls-7,.cls-8{stroke-miterlimit:10;}.cls-2{fill:#c49a6c;}.cls-3,.cls-7,.cls-8{fill:none;}.cls-4{fill:#ed1c24;}.cls-4,.cls-7,.cls-8{stroke-width:0.75px;}.cls-5{fill:#ddb326;}.cls-5,.cls-6{stroke-width:0.25px;}.cls-6{fill:#fff;}.cls-8{stroke:#414042;}.cls-9{fill:#231f20;}</style></defs><g id="Layer_2" data-name="Layer 2"><g id="Layer_1-2" data-name="Layer 1"><path class="cls-1" d="M15.48,35.74c-.91.67,4.33,9.16,6.36,12.27,10,15.32,24.22,25.82,25.37,24.69C49.11,70.81,17.49,34.26,15.48,35.74Z"/><path class="cls-1" d="M51.3,2.63c-.71-.89-9,4.64-12,6.78C24.3,19.93,14.3,34.51,15.47,35.62,17.42,37.46,52.84,4.58,51.3,2.63Z"/><path class="cls-2" d="M114.19,35.74c.91.67-4.32,9.16-6.35,12.27-10,15.32-24.22,25.82-25.37,24.69C80.56,70.81,112.18,34.26,114.19,35.74Z"/><path class="cls-2" d="M78.38,2.63c.7-.89,9,4.64,12,6.78,15,10.52,25,25.1,23.78,26.21C112.25,37.46,76.83,4.58,78.38,2.63Z"/><path class="cls-1" d="M15.38,35.7a7.44,7.44,0,0,1-7.44,7.43,8.07,8.07,0,0,1-5.63-2.57A7.41,7.41,0,0,1,.5,35.7c.1-3.43,3-7.44,7.44-7.44A7.44,7.44,0,0,1,15.38,35.7Z"/><circle class="cls-2" cx="121.73" cy="35.7" r="7.44"/><rect class="cls-3" x="58.16" y="0.79" width="9.29" height="74.49" transform="matrix(0.98, 0.19, -0.19, 0.98, 8.41, -11.29)"/><path class="cls-4" d="M8.2,38.8a6.74,6.74,0,0,0,.26-3.06c-.23-2.1-1-2.61-.71-3.77s1.55-2.13,1.92-1.92c1.05.61-4.34,10.86-3.51,11.3C6.47,41.52,7.67,40.27,8.2,38.8Z"/><path class="cls-5" d="M126.17,30.33c-.6,0-1.21,1.26-1.2,2.29,0,1.27,1,1.61.81,2.73a2.8,2.8,0,0,1-1.38,1.92c-.73.4-1.39.27-1.44.52s1.14.48,1.48,1.3c.48,1.14-1.15,2.65-.76,3.06.18.19.68,0,.91-.1a7.25,7.25,0,0,0,3.73-3.78C129.67,34.65,127.33,30.26,126.17,30.33Z"/><path class="cls-6" d="M120.78,37.34c-.38-.06-1,.86-1,1.75,0,.71.36,1.53.71,1.53s.68-.88.75-1.51S121.15,37.4,120.78,37.34Z"/><path class="cls-6" d="M121.24,30.88c-.38-.06-1,.86-1,1.74,0,.72.36,1.54.72,1.54s.67-.88.74-1.51S121.61,30.93,121.24,30.88Z"/><path class="cls-7" d="M2,39.5a3.48,3.48,0,0,0,1.24-.73c1.27-1.18,1.15-3,1.38-9.13,0-.39,0-.7,0-.86"/><rect class="cls-8" x="53.82" y="67.43" width="2.15" height="2.15" transform="translate(-22.83 109.32) rotate(-79)"/><rect class="cls-8" x="57.45" y="68.15" width="2.15" height="2.15" transform="translate(-20.6 113.47) rotate(-79)"/><rect class="cls-8" x="53.19" y="70.65" width="2.15" height="2.15" transform="translate(-26.5 111.31) rotate(-79)"/><rect class="cls-8" x="56.81" y="71.44" width="2.15" height="2.15" transform="translate(-24.34 115.5) rotate(-79)"/><rect class="cls-8" x="55.14" y="60.63" width="2.15" height="2.15" transform="translate(-15.08 105.12) rotate(-79)"/><rect class="cls-8" x="58.78" y="61.35" width="2.15" height="2.15" transform="translate(-12.85 109.27) rotate(-79)"/><rect class="cls-8" x="54.52" y="63.85" width="2.15" height="2.15" transform="translate(-18.75 107.11) rotate(-79)"/><rect class="cls-8" x="58.14" y="64.64" width="2.15" height="2.15" transform="translate(-16.6 111.3) rotate(-79)"/><rect class="cls-8" x="65.19" y="9.47" width="2.15" height="2.15" transform="translate(43.27 73.59) rotate(-79)"/><rect class="cls-8" x="68.82" y="10.2" width="2.15" height="2.15" transform="translate(45.5 77.74) rotate(-79)"/><rect class="cls-8" x="64.56" y="12.7" width="2.15" height="2.15" transform="translate(39.6 75.58) rotate(-79)"/><rect class="cls-8" x="68.18" y="13.48" width="2.15" height="2.15" transform="translate(41.75 79.77) rotate(-79)"/><rect class="cls-8" x="66.52" y="2.67" width="2.15" height="2.15" transform="translate(51.01 69.39) rotate(-79)"/><rect class="cls-8" x="70.15" y="3.4" width="2.15" height="2.15" transform="translate(53.24 73.54) rotate(-79)"/><rect class="cls-8" x="65.89" y="5.9" width="2.15" height="2.15" transform="translate(47.34 71.38) rotate(-79)"/><rect class="cls-8" x="69.51" y="6.69" width="2.15" height="2.15" transform="translate(49.5 75.57) rotate(-79)"/><rect class="cls-8" x="62.64" y="22.68" width="2.15" height="2.15" transform="translate(28.24 81.77) rotate(-79)"/><rect class="cls-8" x="66.28" y="23.4" width="2.15" height="2.15" transform="translate(30.47 85.92) rotate(-79)"/><rect class="cls-8" x="62.02" y="25.9" width="2.15" height="2.15" transform="translate(24.57 83.76) rotate(-79)"/><rect class="cls-8" x="65.64" y="26.69" width="2.15" height="2.15" transform="translate(26.73 87.96) rotate(-79)"/><rect class="cls-8" x="63.97" y="15.88" width="2.15" height="2.15" transform="translate(35.99 77.57) rotate(-79)"/><rect class="cls-8" x="67.6" y="16.6" width="2.15" height="2.15" transform="translate(38.22 81.72) rotate(-79)"/><rect class="cls-8" x="63.34" y="19.1" width="2.15" height="2.15" transform="translate(32.32 79.56) rotate(-79)"/><rect class="cls-8" x="66.96" y="19.89" width="2.15" height="2.15" transform="translate(34.48 83.76) rotate(-79)"/><rect class="cls-8" x="56.54" y="54.13" width="2.15" height="2.15" transform="translate(-7.57 101.23) rotate(-79)"/><rect class="cls-8" x="60.17" y="54.85" width="2.15" height="2.15" transform="translate(-5.34 105.38) rotate(-79)"/><rect class="cls-8" x="55.91" y="57.35" width="2.15" height="2.15" transform="translate(-11.24 103.22) rotate(-79)"/><rect class="cls-8" x="59.53" y="58.14" width="2.15" height="2.15" transform="translate(-9.09 107.41) rotate(-79)"/><rect class="cls-8" x="57.86" y="47.33" width="2.15" height="2.15" transform="translate(0.18 97.03) rotate(-79)"/><rect class="cls-8" x="61.5" y="48.05" width="2.15" height="2.15" transform="translate(2.41 101.18) rotate(-79)"/><rect class="cls-8" x="57.24" y="50.55" width="2.15" height="2.15" transform="translate(-3.49 99.02) rotate(-79)"/><rect class="cls-8" x="60.86" y="51.34" width="2.15" height="2.15" transform="translate(-1.34 103.21) rotate(-79)"/><path class="cls-9" d="M60.17,41.89a1.74,1.74,0,0,0-.18.33,2.09,2.09,0,0,0-.13.4A2.17,2.17,0,0,0,60,44.11a1.57,1.57,0,0,0,1.08.8,1.59,1.59,0,0,0,1.3-.23,1.76,1.76,0,0,0,.73-1.17,1.93,1.93,0,0,0,0-.47,2.67,2.67,0,0,0-.08-.48l.22-.09h.17c.12,0,.2.14.23.33a2.13,2.13,0,0,1-.06.76,3.17,3.17,0,0,1-.33.91,2.11,2.11,0,0,1-.55.66,2,2,0,0,1-.83.41,2.07,2.07,0,0,1-1.81-.45,2.35,2.35,0,0,1-.61-.87,2.83,2.83,0,0,1-.22-.9,3.48,3.48,0,0,1,.08-1,1.5,1.5,0,0,1,.18-.55.22.22,0,0,1,.25-.11.34.34,0,0,1,.15.07A1.4,1.4,0,0,1,60.17,41.89Z"/><path class="cls-9" d="M60.59,37.6a1.54,1.54,0,0,1,0-.19.78.78,0,0,1,0-.16.25.25,0,0,1,.12-.19.34.34,0,0,1,.25,0,2.18,2.18,0,0,1,.67.34,9.78,9.78,0,0,1,1,.81c.45-.12.8-.22,1-.31s.36-.15.37-.2,0-.09-.1-.19a2.53,2.53,0,0,0-.28-.31,8.07,8.07,0,0,0-1.22-1,3.43,3.43,0,0,0-1.07-.47l-.23,0H61a.65.65,0,0,1,0-.19.91.91,0,0,1,0-.17.34.34,0,0,1,.15-.22.45.45,0,0,1,.31,0,3.89,3.89,0,0,1,1.1.51,7.86,7.86,0,0,1,1.22,1l0,0c.77.78,1.15,1.22,1.13,1.32s-.63.31-1.81.6l0,0a14.93,14.93,0,0,1,1,1.13c.23.29.34.48.32.57s-.1.12-.26.18a4,4,0,0,1-.66.16l-1.63.27a5.32,5.32,0,0,0-1.93.48,1.2,1.2,0,0,1-.13-.25.42.42,0,0,1,0-.22.35.35,0,0,1,.19-.26,2.57,2.57,0,0,1,.73-.17l1-.13a6.12,6.12,0,0,0,2-.39c0-.07-.08-.21-.26-.44a10.66,10.66,0,0,0-.83-.83,13.87,13.87,0,0,0-1.45.32,1.86,1.86,0,0,0-.68.33.65.65,0,0,1-.15-.23.39.39,0,0,1,0-.24c0-.21.66-.4,1.83-.56h.09a7.45,7.45,0,0,0-.67-.46,2.4,2.4,0,0,0-.53-.22l-.19,0Z"/><path class="cls-9" d="M62.29,29.73a2.09,2.09,0,0,0,.37.17,2.43,2.43,0,0,0,.43.12,10,10,0,0,0,1.75.27,6.5,6.5,0,0,0,1.43-.06,1.17,1.17,0,0,1,0,.3,1,1,0,0,1,0,.25.31.31,0,0,1-.1.19A.33.33,0,0,1,66,31l-1.08-.18c-.67-.11-1.33-.22-2-.3.68.59,1.42,1.23,2.24,1.9l.3.25a.48.48,0,0,1,.14.15.22.22,0,0,1,0,.14c0,.09-.15.17-.39.22l-.12,0-1.78.47c-.47.13-.85.23-1.13.32.48.15,1.08.32,1.79.51a6.74,6.74,0,0,1,1.21.39.23.23,0,0,1,.11.11.35.35,0,0,1,0,.18.67.67,0,0,1-.08.18,1.36,1.36,0,0,1-.17.24A6.24,6.24,0,0,0,63.85,35a10.29,10.29,0,0,0-1.72-.52,2.4,2.4,0,0,0-.43-.07,2.71,2.71,0,0,0-.4,0,.8.8,0,0,1-.08-.21.61.61,0,0,1,0-.19c0-.19.54-.41,1.49-.65l.86-.22,1-.27c.16-.05.24-.09.24-.11a7.09,7.09,0,0,0-1.28-1.16l-.86-.71a3.06,3.06,0,0,1-.48-.47.44.44,0,0,1-.1-.34.51.51,0,0,1,.07-.17A.89.89,0,0,1,62.29,29.73Z"/></g></g></svg>