<svg width="1363" height="167" viewBox="0 0 1363 167" fill="none" xmlns="http://www.w3.org/2000/svg">
<rect width="1363" height="167" rx="15" fill="#1E1E1E"/>
<path d="M0 15C0 6.71573 6.71573 0 15 0H37V167H15C6.71573 167 0 160.284 0 152V15Z" fill="#424241"/>
<path d="M100.906 50.9219L93.3945 48.2383V45.0859L103.602 49.375V51.6367L100.906 50.9219ZM93.3945 53.1719L100.918 50.4297L103.602 49.7852V52.0352L93.3945 56.3242V53.1719ZM121.789 52.3398H125.293C125.223 53.4883 124.906 54.5078 124.344 55.3984C123.789 56.2891 123.012 56.9844 122.012 57.4844C121.02 57.9844 119.824 58.2344 118.426 58.2344C117.332 58.2344 116.352 58.0469 115.484 57.6719C114.617 57.2891 113.875 56.7422 113.258 56.0312C112.648 55.3203 112.184 54.4609 111.863 53.4531C111.543 52.4453 111.383 51.3164 111.383 50.0664V48.8828C111.383 47.6328 111.547 46.5039 111.875 45.4961C112.211 44.4805 112.688 43.6172 113.305 42.9062C113.93 42.1953 114.676 41.6484 115.543 41.2656C116.41 40.8828 117.379 40.6914 118.449 40.6914C119.871 40.6914 121.07 40.9492 122.047 41.4648C123.031 41.9805 123.793 42.6914 124.332 43.5977C124.879 44.5039 125.207 45.5352 125.316 46.6914H121.801C121.762 46.0039 121.625 45.4219 121.391 44.9453C121.156 44.4609 120.801 44.0977 120.324 43.8555C119.855 43.6055 119.23 43.4805 118.449 43.4805C117.863 43.4805 117.352 43.5898 116.914 43.8086C116.477 44.0273 116.109 44.3594 115.812 44.8047C115.516 45.25 115.293 45.8125 115.145 46.4922C115.004 47.1641 114.934 47.9531 114.934 48.8594V50.0664C114.934 50.9492 115 51.7266 115.133 52.3984C115.266 53.0625 115.469 53.625 115.742 54.0859C116.023 54.5391 116.383 54.8828 116.82 55.1172C117.266 55.3438 117.801 55.457 118.426 55.457C119.16 55.457 119.766 55.3398 120.242 55.1055C120.719 54.8711 121.082 54.5234 121.332 54.0625C121.59 53.6016 121.742 53.0273 121.789 52.3398ZM126.852 51.7891V51.543C126.852 50.6133 126.984 49.7578 127.25 48.9766C127.516 48.1875 127.902 47.5039 128.41 46.9258C128.918 46.3477 129.543 45.8984 130.285 45.5781C131.027 45.25 131.879 45.0859 132.84 45.0859C133.801 45.0859 134.656 45.25 135.406 45.5781C136.156 45.8984 136.785 46.3477 137.293 46.9258C137.809 47.5039 138.199 48.1875 138.465 48.9766C138.73 49.7578 138.863 50.6133 138.863 51.543V51.7891C138.863 52.7109 138.73 53.5664 138.465 54.3555C138.199 55.1367 137.809 55.8203 137.293 56.4062C136.785 56.9844 136.16 57.4336 135.418 57.7539C134.676 58.0742 133.824 58.2344 132.863 58.2344C131.902 58.2344 131.047 58.0742 130.297 57.7539C129.555 57.4336 128.926 56.9844 128.41 56.4062C127.902 55.8203 127.516 55.1367 127.25 54.3555C126.984 53.5664 126.852 52.7109 126.852 51.7891ZM130.227 51.543V51.7891C130.227 52.3203 130.273 52.8164 130.367 53.2773C130.461 53.7383 130.609 54.1445 130.812 54.4961C131.023 54.8398 131.297 55.1094 131.633 55.3047C131.969 55.5 132.379 55.5977 132.863 55.5977C133.332 55.5977 133.734 55.5 134.07 55.3047C134.406 55.1094 134.676 54.8398 134.879 54.4961C135.082 54.1445 135.23 53.7383 135.324 53.2773C135.426 52.8164 135.477 52.3203 135.477 51.7891V51.543C135.477 51.0273 135.426 50.543 135.324 50.0898C135.23 49.6289 135.078 49.2227 134.867 48.8711C134.664 48.5117 134.395 48.2305 134.059 48.0273C133.723 47.8242 133.316 47.7227 132.84 47.7227C132.363 47.7227 131.957 47.8242 131.621 48.0273C131.293 48.2305 131.023 48.5117 130.812 48.8711C130.609 49.2227 130.461 49.6289 130.367 50.0898C130.273 50.543 130.227 51.0273 130.227 51.543ZM148.426 55.2344V40H151.824V58H148.766L148.426 55.2344ZM140.41 51.8125V51.5664C140.41 50.5977 140.52 49.7188 140.738 48.9297C140.957 48.1328 141.277 47.4492 141.699 46.8789C142.121 46.3086 142.641 45.8672 143.258 45.5547C143.875 45.2422 144.578 45.0859 145.367 45.0859C146.109 45.0859 146.758 45.2422 147.312 45.5547C147.875 45.8672 148.352 46.3125 148.742 46.8906C149.141 47.4609 149.461 48.1367 149.703 48.918C149.945 49.6914 150.121 50.5391 150.23 51.4609V52C150.121 52.8828 149.945 53.7031 149.703 54.4609C149.461 55.2188 149.141 55.8828 148.742 56.4531C148.352 57.0156 147.875 57.4531 147.312 57.7656C146.75 58.0781 146.094 58.2344 145.344 58.2344C144.555 58.2344 143.852 58.0742 143.234 57.7539C142.625 57.4336 142.109 56.9844 141.688 56.4062C141.273 55.8281 140.957 55.1484 140.738 54.3672C140.52 53.5859 140.41 52.7344 140.41 51.8125ZM143.785 51.5664V51.8125C143.785 52.3359 143.824 52.8242 143.902 53.2773C143.988 53.7305 144.125 54.1328 144.312 54.4844C144.508 54.8281 144.758 55.0977 145.062 55.293C145.375 55.4805 145.754 55.5742 146.199 55.5742C146.777 55.5742 147.254 55.4453 147.629 55.1875C148.004 54.9219 148.289 54.5586 148.484 54.0977C148.688 53.6367 148.805 53.1055 148.836 52.5039V50.9688C148.812 50.4766 148.742 50.0352 148.625 49.6445C148.516 49.2461 148.352 48.9062 148.133 48.625C147.922 48.3438 147.656 48.125 147.336 47.9688C147.023 47.8125 146.652 47.7344 146.223 47.7344C145.785 47.7344 145.41 47.8359 145.098 48.0391C144.785 48.2344 144.531 48.5039 144.336 48.8477C144.148 49.1914 144.008 49.5977 143.914 50.0664C143.828 50.5273 143.785 51.0273 143.785 51.5664ZM160.297 58.2344C159.312 58.2344 158.43 58.0781 157.648 57.7656C156.867 57.4453 156.203 57.0039 155.656 56.4414C155.117 55.8789 154.703 55.2266 154.414 54.4844C154.125 53.7344 153.98 52.9375 153.98 52.0938V51.625C153.98 50.6641 154.117 49.7852 154.391 48.9883C154.664 48.1914 155.055 47.5 155.562 46.9141C156.078 46.3281 156.703 45.8789 157.438 45.5664C158.172 45.2461 159 45.0859 159.922 45.0859C160.82 45.0859 161.617 45.2344 162.312 45.5312C163.008 45.8281 163.59 46.25 164.059 46.7969C164.535 47.3438 164.895 48 165.137 48.7656C165.379 49.5234 165.5 50.3672 165.5 51.2969V52.7031H155.422V50.4531H162.184V50.1953C162.184 49.7266 162.098 49.3086 161.926 48.9414C161.762 48.5664 161.512 48.2695 161.176 48.0508C160.84 47.832 160.41 47.7227 159.887 47.7227C159.441 47.7227 159.059 47.8203 158.738 48.0156C158.418 48.2109 158.156 48.4844 157.953 48.8359C157.758 49.1875 157.609 49.6016 157.508 50.0781C157.414 50.5469 157.367 51.0625 157.367 51.625V52.0938C157.367 52.6016 157.438 53.0703 157.578 53.5C157.727 53.9297 157.934 54.3008 158.199 54.6133C158.473 54.9258 158.801 55.168 159.184 55.3398C159.574 55.5117 160.016 55.5977 160.508 55.5977C161.117 55.5977 161.684 55.4805 162.207 55.2461C162.738 55.0039 163.195 54.6406 163.578 54.1562L165.219 55.9375C164.953 56.3203 164.59 56.6875 164.129 57.0391C163.676 57.3906 163.129 57.6797 162.488 57.9062C161.848 58.125 161.117 58.2344 160.297 58.2344ZM171.746 55.293L175.145 40.9375H177.043L177.477 43.3281L173.855 58H171.816L171.746 55.293ZM170 40.9375L172.812 55.293L172.578 58H170.305L166.52 40.9375H170ZM180.465 55.2344L183.242 40.9375H186.723L182.949 58H180.676L180.465 55.2344ZM178.109 40.9375L181.531 55.3516L181.438 58H179.398L175.754 43.3164L176.223 40.9375H178.109ZM191.984 45.3203V58H188.598V45.3203H191.984ZM188.387 42.0156C188.387 41.5234 188.559 41.1172 188.902 40.7969C189.246 40.4766 189.707 40.3164 190.285 40.3164C190.855 40.3164 191.312 40.4766 191.656 40.7969C192.008 41.1172 192.184 41.5234 192.184 42.0156C192.184 42.5078 192.008 42.9141 191.656 43.2344C191.312 43.5547 190.855 43.7148 190.285 43.7148C189.707 43.7148 189.246 43.5547 188.902 43.2344C188.559 42.9141 188.387 42.5078 188.387 42.0156ZM200.984 45.3203V47.7109H193.602V45.3203H200.984ZM195.43 42.1914H198.805V54.1797C198.805 54.5469 198.852 54.8281 198.945 55.0234C199.047 55.2188 199.195 55.3555 199.391 55.4336C199.586 55.5039 199.832 55.5391 200.129 55.5391C200.34 55.5391 200.527 55.5312 200.691 55.5156C200.863 55.4922 201.008 55.4688 201.125 55.4453L201.137 57.9297C200.848 58.0234 200.535 58.0977 200.199 58.1523C199.863 58.207 199.492 58.2344 199.086 58.2344C198.344 58.2344 197.695 58.1133 197.141 57.8711C196.594 57.6211 196.172 57.2227 195.875 56.6758C195.578 56.1289 195.43 55.4102 195.43 54.5195V42.1914ZM206.199 40V58H202.824V40H206.199ZM205.719 51.2148H204.793C204.801 50.332 204.918 49.5195 205.145 48.7773C205.371 48.0273 205.695 47.3789 206.117 46.832C206.539 46.2773 207.043 45.8477 207.629 45.543C208.223 45.2383 208.879 45.0859 209.598 45.0859C210.223 45.0859 210.789 45.1758 211.297 45.3555C211.812 45.5273 212.254 45.8086 212.621 46.1992C212.996 46.582 213.285 47.0859 213.488 47.7109C213.691 48.3359 213.793 49.0938 213.793 49.9844V58H210.395V49.9609C210.395 49.3984 210.312 48.957 210.148 48.6367C209.992 48.3086 209.762 48.0781 209.457 47.9453C209.16 47.8047 208.793 47.7344 208.355 47.7344C207.871 47.7344 207.457 47.8242 207.113 48.0039C206.777 48.1836 206.508 48.4336 206.305 48.7539C206.102 49.0664 205.953 49.4336 205.859 49.8555C205.766 50.2773 205.719 50.7305 205.719 51.2148ZM218.176 40.9375H221.152L225.535 53.4648L229.918 40.9375H232.895L226.73 58H224.34L218.176 40.9375ZM216.57 40.9375H219.535L220.074 53.1484V58H216.57V40.9375ZM231.535 40.9375H234.512V58H230.996V53.1484L231.535 40.9375ZM243.219 58.2344C242.234 58.2344 241.352 58.0781 240.57 57.7656C239.789 57.4453 239.125 57.0039 238.578 56.4414C238.039 55.8789 237.625 55.2266 237.336 54.4844C237.047 53.7344 236.902 52.9375 236.902 52.0938V51.625C236.902 50.6641 237.039 49.7852 237.312 48.9883C237.586 48.1914 237.977 47.5 238.484 46.9141C239 46.3281 239.625 45.8789 240.359 45.5664C241.094 45.2461 241.922 45.0859 242.844 45.0859C243.742 45.0859 244.539 45.2344 245.234 45.5312C245.93 45.8281 246.512 46.25 246.98 46.7969C247.457 47.3438 247.816 48 248.059 48.7656C248.301 49.5234 248.422 50.3672 248.422 51.2969V52.7031H238.344V50.4531H245.105V50.1953C245.105 49.7266 245.02 49.3086 244.848 48.9414C244.684 48.5664 244.434 48.2695 244.098 48.0508C243.762 47.832 243.332 47.7227 242.809 47.7227C242.363 47.7227 241.98 47.8203 241.66 48.0156C241.34 48.2109 241.078 48.4844 240.875 48.8359C240.68 49.1875 240.531 49.6016 240.43 50.0781C240.336 50.5469 240.289 51.0625 240.289 51.625V52.0938C240.289 52.6016 240.359 53.0703 240.5 53.5C240.648 53.9297 240.855 54.3008 241.121 54.6133C241.395 54.9258 241.723 55.168 242.105 55.3398C242.496 55.5117 242.938 55.5977 243.43 55.5977C244.039 55.5977 244.605 55.4805 245.129 55.2461C245.66 55.0039 246.117 54.6406 246.5 54.1562L248.141 55.9375C247.875 56.3203 247.512 56.6875 247.051 57.0391C246.598 57.3906 246.051 57.6797 245.41 57.9062C244.77 58.125 244.039 58.2344 243.219 58.2344Z" fill="#888888"/>
<path d="M107.205 107.146H99.251V101.191H107.205C108.289 101.191 109.168 101.008 109.842 100.642C110.516 100.275 111.006 99.77 111.314 99.1255C111.636 98.4663 111.797 97.7266 111.797 96.9062C111.797 96.0273 111.636 95.2144 111.314 94.4673C111.006 93.7202 110.516 93.1196 109.842 92.6655C109.168 92.1968 108.289 91.9624 107.205 91.9624H102.151V118H94.439V86.0078H107.205C109.769 86.0078 111.973 86.4766 113.819 87.4141C115.679 88.3516 117.107 89.6406 118.104 91.2812C119.1 92.9072 119.598 94.7676 119.598 96.8623C119.598 98.9277 119.1 100.729 118.104 102.268C117.107 103.806 115.679 105.007 113.819 105.871C111.973 106.721 109.769 107.146 107.205 107.146ZM130.87 100.114V118H123.465V94.2256H130.386L130.87 100.114ZM137.901 94.0498L137.769 100.927C137.476 100.898 137.081 100.861 136.583 100.817C136.084 100.773 135.667 100.751 135.33 100.751C134.466 100.751 133.719 100.854 133.089 101.059C132.474 101.25 131.961 101.542 131.551 101.938C131.155 102.319 130.862 102.802 130.672 103.388C130.496 103.974 130.416 104.655 130.43 105.432L129.09 104.553C129.09 102.956 129.244 101.506 129.551 100.202C129.874 98.8838 130.328 97.7485 130.914 96.7964C131.5 95.8296 132.21 95.0898 133.045 94.5771C133.88 94.0498 134.817 93.7861 135.857 93.7861C136.224 93.7861 136.583 93.8081 136.934 93.8521C137.3 93.896 137.623 93.9619 137.901 94.0498ZM138.736 106.354V105.893C138.736 104.15 138.985 102.546 139.483 101.081C139.981 99.6016 140.713 98.3198 141.68 97.2358C142.647 96.1519 143.841 95.3096 145.262 94.709C146.683 94.0938 148.323 93.7861 150.184 93.7861C152.059 93.7861 153.707 94.0938 155.127 94.709C156.563 95.3096 157.764 96.1519 158.731 97.2358C159.698 98.3198 160.43 99.6016 160.928 101.081C161.426 102.546 161.675 104.15 161.675 105.893V106.354C161.675 108.083 161.426 109.687 160.928 111.167C160.43 112.631 159.698 113.913 158.731 115.012C157.764 116.096 156.57 116.938 155.149 117.539C153.729 118.139 152.088 118.439 150.228 118.439C148.367 118.439 146.719 118.139 145.284 117.539C143.848 116.938 142.647 116.096 141.68 115.012C140.713 113.913 139.981 112.631 139.483 111.167C138.985 109.687 138.736 108.083 138.736 106.354ZM146.141 105.893V106.354C146.141 107.248 146.207 108.083 146.338 108.859C146.47 109.636 146.69 110.317 146.998 110.903C147.305 111.474 147.723 111.921 148.25 112.243C148.777 112.565 149.437 112.727 150.228 112.727C151.004 112.727 151.648 112.565 152.161 112.243C152.688 111.921 153.106 111.474 153.414 110.903C153.721 110.317 153.941 109.636 154.073 108.859C154.205 108.083 154.271 107.248 154.271 106.354V105.893C154.271 105.029 154.205 104.216 154.073 103.454C153.941 102.678 153.721 101.997 153.414 101.411C153.106 100.81 152.688 100.341 152.161 100.004C151.634 99.6675 150.975 99.499 150.184 99.499C149.407 99.499 148.755 99.6675 148.228 100.004C147.715 100.341 147.305 100.81 146.998 101.411C146.69 101.997 146.47 102.678 146.338 103.454C146.207 104.216 146.141 105.029 146.141 105.893ZM177.496 94.2256V99.3672H163.169V94.2256H177.496ZM166.18 88.3149H173.584V110.244C173.584 110.874 173.658 111.364 173.804 111.716C173.951 112.053 174.2 112.294 174.551 112.441C174.917 112.573 175.401 112.639 176.001 112.639C176.426 112.639 176.778 112.631 177.056 112.617C177.334 112.587 177.598 112.551 177.847 112.507V117.802C177.217 118.007 176.558 118.161 175.87 118.264C175.181 118.381 174.449 118.439 173.672 118.439C172.09 118.439 170.735 118.19 169.607 117.692C168.494 117.194 167.645 116.411 167.059 115.341C166.473 114.272 166.18 112.88 166.18 111.167V88.3149ZM178.858 106.354V105.893C178.858 104.15 179.107 102.546 179.605 101.081C180.103 99.6016 180.835 98.3198 181.802 97.2358C182.769 96.1519 183.963 95.3096 185.384 94.709C186.805 94.0938 188.445 93.7861 190.306 93.7861C192.181 93.7861 193.829 94.0938 195.25 94.709C196.685 95.3096 197.886 96.1519 198.853 97.2358C199.82 98.3198 200.552 99.6016 201.05 101.081C201.548 102.546 201.797 104.15 201.797 105.893V106.354C201.797 108.083 201.548 109.687 201.05 111.167C200.552 112.631 199.82 113.913 198.853 115.012C197.886 116.096 196.692 116.938 195.271 117.539C193.851 118.139 192.21 118.439 190.35 118.439C188.489 118.439 186.841 118.139 185.406 117.539C183.97 116.938 182.769 116.096 181.802 115.012C180.835 113.913 180.103 112.631 179.605 111.167C179.107 109.687 178.858 108.083 178.858 106.354ZM186.263 105.893V106.354C186.263 107.248 186.329 108.083 186.46 108.859C186.592 109.636 186.812 110.317 187.12 110.903C187.427 111.474 187.845 111.921 188.372 112.243C188.899 112.565 189.559 112.727 190.35 112.727C191.126 112.727 191.771 112.565 192.283 112.243C192.811 111.921 193.228 111.474 193.536 110.903C193.843 110.317 194.063 109.636 194.195 108.859C194.327 108.083 194.393 107.248 194.393 106.354V105.893C194.393 105.029 194.327 104.216 194.195 103.454C194.063 102.678 193.843 101.997 193.536 101.411C193.228 100.81 192.811 100.341 192.283 100.004C191.756 99.6675 191.097 99.499 190.306 99.499C189.529 99.499 188.877 99.6675 188.35 100.004C187.837 100.341 187.427 100.81 187.12 101.411C186.812 101.997 186.592 102.678 186.46 103.454C186.329 104.216 186.263 105.029 186.263 105.893ZM217.618 94.2256V99.3672H203.292V94.2256H217.618ZM206.302 88.3149H213.707V110.244C213.707 110.874 213.78 111.364 213.926 111.716C214.073 112.053 214.322 112.294 214.673 112.441C215.04 112.573 215.523 112.639 216.124 112.639C216.548 112.639 216.9 112.631 217.178 112.617C217.457 112.587 217.72 112.551 217.969 112.507V117.802C217.339 118.007 216.68 118.161 215.992 118.264C215.303 118.381 214.571 118.439 213.794 118.439C212.212 118.439 210.857 118.19 209.729 117.692C208.616 117.194 207.767 116.411 207.181 115.341C206.595 114.272 206.302 112.88 206.302 111.167V88.3149ZM227.857 115.209L234.009 94.2256H241.963L232.405 121.538C232.2 122.138 231.929 122.783 231.592 123.471C231.255 124.174 230.794 124.841 230.208 125.471C229.622 126.101 228.868 126.613 227.945 127.009C227.037 127.404 225.909 127.602 224.561 127.602C223.843 127.602 223.316 127.565 222.979 127.492C222.657 127.434 222.159 127.324 221.485 127.163V121.867C221.675 121.867 221.836 121.867 221.968 121.867C222.115 121.867 222.276 121.867 222.452 121.867C223.243 121.867 223.873 121.787 224.341 121.625C224.825 121.464 225.191 121.23 225.44 120.922C225.704 120.615 225.909 120.241 226.055 119.802L227.857 115.209ZM226.297 94.2256L230.977 110.859L231.79 118.703H226.824L218.365 94.2256H226.297ZM251.368 98.7959V127.141H243.963V94.2256H250.862L251.368 98.7959ZM265.958 105.827V106.289C265.958 108.017 265.76 109.621 265.364 111.101C264.969 112.58 264.383 113.869 263.606 114.968C262.83 116.066 261.863 116.923 260.706 117.539C259.563 118.139 258.238 118.439 256.729 118.439C255.308 118.439 254.085 118.125 253.06 117.495C252.034 116.865 251.177 115.993 250.489 114.88C249.8 113.767 249.244 112.492 248.819 111.057C248.394 109.621 248.057 108.105 247.808 106.508V105.915C248.057 104.201 248.394 102.612 248.819 101.147C249.244 99.6675 249.8 98.3784 250.489 97.2798C251.177 96.1812 252.027 95.3242 253.038 94.709C254.063 94.0938 255.286 93.7861 256.707 93.7861C258.216 93.7861 259.542 94.0718 260.684 94.6431C261.841 95.2144 262.808 96.0347 263.584 97.104C264.375 98.1587 264.969 99.4258 265.364 100.905C265.76 102.385 265.958 104.025 265.958 105.827ZM258.553 106.289V105.827C258.553 104.904 258.487 104.062 258.355 103.3C258.223 102.524 258.011 101.85 257.718 101.279C257.439 100.708 257.066 100.268 256.597 99.9604C256.128 99.6528 255.55 99.499 254.861 99.499C254.07 99.499 253.404 99.6235 252.862 99.8726C252.334 100.107 251.91 100.473 251.587 100.971C251.28 101.455 251.06 102.062 250.928 102.795C250.811 103.513 250.76 104.355 250.774 105.322V107.124C250.745 108.237 250.855 109.218 251.104 110.068C251.353 110.903 251.785 111.555 252.4 112.023C253.016 112.492 253.851 112.727 254.905 112.727C255.608 112.727 256.194 112.565 256.663 112.243C257.132 111.906 257.505 111.445 257.784 110.859C258.062 110.258 258.26 109.57 258.377 108.793C258.494 108.017 258.553 107.182 258.553 106.289ZM277.076 94.2256V118H269.649V94.2256H277.076ZM269.209 88.0952C269.209 87.0405 269.59 86.1763 270.352 85.5024C271.114 84.8286 272.103 84.4917 273.318 84.4917C274.534 84.4917 275.523 84.8286 276.285 85.5024C277.046 86.1763 277.427 87.0405 277.427 88.0952C277.427 89.1499 277.046 90.0142 276.285 90.688C275.523 91.3618 274.534 91.6987 273.318 91.6987C272.103 91.6987 271.114 91.3618 270.352 90.688C269.59 90.0142 269.209 89.1499 269.209 88.0952ZM288.919 99.3013V118H281.514V94.2256H288.458L288.919 99.3013ZM288.04 105.3L286.304 105.344C286.304 103.527 286.524 101.909 286.963 100.488C287.403 99.0522 288.025 97.8364 288.831 96.8403C289.637 95.8442 290.596 95.0898 291.709 94.5771C292.837 94.0498 294.09 93.7861 295.467 93.7861C296.565 93.7861 297.569 93.9473 298.477 94.2695C299.4 94.5918 300.191 95.1118 300.85 95.8296C301.524 96.5474 302.037 97.4995 302.388 98.686C302.754 99.8579 302.938 101.308 302.938 103.037V118H295.489V103.015C295.489 102.062 295.357 101.337 295.093 100.839C294.83 100.327 294.449 99.9751 293.951 99.7847C293.453 99.5942 292.845 99.499 292.127 99.499C291.365 99.499 290.721 99.6455 290.193 99.9385C289.666 100.231 289.241 100.642 288.919 101.169C288.611 101.682 288.384 102.29 288.238 102.993C288.106 103.696 288.04 104.465 288.04 105.3ZM321.988 94.2256H328.711V117.077C328.711 119.274 328.206 121.135 327.195 122.658C326.185 124.196 324.771 125.361 322.955 126.152C321.153 126.958 319.043 127.36 316.626 127.36C315.557 127.36 314.466 127.221 313.353 126.943C312.239 126.679 311.199 126.284 310.232 125.756C309.266 125.229 308.453 124.577 307.793 123.801L310.892 119.45C311.492 120.124 312.247 120.695 313.155 121.164C314.063 121.647 315.132 121.889 316.363 121.889C317.432 121.889 318.326 121.699 319.043 121.318C319.776 120.937 320.333 120.38 320.713 119.648C321.094 118.93 321.285 118.059 321.285 117.033V99.8506L321.988 94.2256ZM306.189 106.398V105.937C306.189 104.135 306.409 102.495 306.849 101.015C307.303 99.521 307.947 98.2393 308.782 97.1699C309.632 96.0859 310.657 95.251 311.858 94.665C313.06 94.0791 314.415 93.7861 315.923 93.7861C317.549 93.7861 318.882 94.1011 319.922 94.731C320.977 95.3462 321.819 96.2104 322.449 97.3237C323.094 98.437 323.592 99.7407 323.943 101.235C324.31 102.714 324.617 104.311 324.866 106.025V106.574C324.617 108.186 324.273 109.709 323.833 111.145C323.409 112.565 322.852 113.825 322.164 114.924C321.475 116.022 320.611 116.887 319.571 117.517C318.545 118.132 317.315 118.439 315.879 118.439C314.385 118.439 313.038 118.139 311.836 117.539C310.65 116.938 309.632 116.096 308.782 115.012C307.947 113.928 307.303 112.653 306.849 111.188C306.409 109.724 306.189 108.127 306.189 106.398ZM313.594 105.937V106.398C313.594 107.292 313.675 108.12 313.836 108.881C314.012 109.643 314.275 110.317 314.627 110.903C314.979 111.474 315.411 111.921 315.923 112.243C316.451 112.565 317.066 112.727 317.769 112.727C318.838 112.727 319.703 112.5 320.362 112.045C321.021 111.591 321.497 110.947 321.79 110.112C322.083 109.277 322.208 108.295 322.164 107.167V105.432C322.193 104.465 322.127 103.615 321.966 102.883C321.805 102.136 321.548 101.513 321.197 101.015C320.86 100.517 320.406 100.144 319.834 99.8945C319.278 99.6309 318.604 99.499 317.813 99.499C317.125 99.499 316.517 99.6602 315.989 99.9824C315.462 100.305 315.022 100.759 314.671 101.345C314.319 101.916 314.048 102.597 313.858 103.388C313.682 104.165 313.594 105.014 313.594 105.937Z" fill="white"/>
<path d="M1363 15C1363 6.71573 1356.28 0 1348 0H1134V167H1348C1356.28 167 1363 160.284 1363 152V15Z" fill="#3E97FC"/>
<path fill-rule="evenodd" clip-rule="evenodd" d="M1203 48C1203 46.8954 1203.9 46 1205 46H1292.5C1293.6 46 1294.5 46.8954 1294.5 48V117.996C1294.5 119.101 1293.6 119.996 1292.5 119.996H1205C1203.9 119.996 1203 119.101 1203 117.996V48ZM1207 50V54.4945H1290.5V50H1207ZM1290.5 58.4945H1235.44V115.996H1290.5V58.4945ZM1231.44 115.996V58.4945H1207V115.996H1231.44Z" fill="white"/>
<path fill-rule="evenodd" clip-rule="evenodd" d="M1209.97 63.8004C1209.97 62.6958 1210.87 61.8004 1211.97 61.8004H1225.97C1227.08 61.8004 1227.97 62.6958 1227.97 63.8004V83.1956C1227.97 84.3001 1227.08 85.1956 1225.97 85.1956H1211.97C1210.87 85.1956 1209.97 84.3001 1209.97 83.1956V63.8004ZM1213.97 65.8004V81.1956H1223.97V65.8004H1213.97ZM1239.58 64.6964C1239.58 63.5918 1240.47 62.6964 1241.58 62.6964H1284.5C1285.61 62.6964 1286.5 63.5918 1286.5 64.6964V110.905C1286.5 112.01 1285.61 112.905 1284.5 112.905H1241.58C1240.47 112.905 1239.58 112.01 1239.58 110.905V64.6964ZM1243.58 66.6964V108.905H1282.5V66.6964H1243.58ZM1209.81 94.9363C1209.81 93.8317 1210.71 92.9363 1211.81 92.9363H1220.73C1221.84 92.9363 1222.73 93.8317 1222.73 94.9363C1222.73 96.0409 1221.84 96.9363 1220.73 96.9363H1211.81C1210.71 96.9363 1209.81 96.0409 1209.81 94.9363ZM1209.81 101.936C1209.81 100.832 1210.71 99.9363 1211.81 99.9363H1226.35C1227.46 99.9363 1228.35 100.832 1228.35 101.936C1228.35 103.041 1227.46 103.936 1226.35 103.936H1211.81C1210.71 103.936 1209.81 103.041 1209.81 101.936ZM1209.81 108.936C1209.81 107.832 1210.71 106.936 1211.81 106.936H1220.73C1221.84 106.936 1222.73 107.832 1222.73 108.936C1222.73 110.041 1221.84 110.936 1220.73 110.936H1211.81C1210.71 110.936 1209.81 110.041 1209.81 108.936Z" fill="white"/>
</svg>
