<svg width="1363" height="167" viewBox="0 0 1363 167" fill="none" xmlns="http://www.w3.org/2000/svg">
<rect width="1363" height="167" rx="15" fill="#1E1E1E"/>
<path d="M0 15C0 6.71573 6.71573 0 15 0H37V167H15C6.71573 167 0 160.284 0 152V15Z" fill="#424241"/>
<path d="M100.906 50.9219L93.3945 48.2383V45.0859L103.602 49.375V51.6367L100.906 50.9219ZM93.3945 53.1719L100.918 50.4297L103.602 49.7852V52.0352L93.3945 56.3242V53.1719ZM121.789 52.3398H125.293C125.223 53.4883 124.906 54.5078 124.344 55.3984C123.789 56.2891 123.012 56.9844 122.012 57.4844C121.02 57.9844 119.824 58.2344 118.426 58.2344C117.332 58.2344 116.352 58.0469 115.484 57.6719C114.617 57.2891 113.875 56.7422 113.258 56.0312C112.648 55.3203 112.184 54.4609 111.863 53.4531C111.543 52.4453 111.383 51.3164 111.383 50.0664V48.8828C111.383 47.6328 111.547 46.5039 111.875 45.4961C112.211 44.4805 112.688 43.6172 113.305 42.9062C113.93 42.1953 114.676 41.6484 115.543 41.2656C116.41 40.8828 117.379 40.6914 118.449 40.6914C119.871 40.6914 121.07 40.9492 122.047 41.4648C123.031 41.9805 123.793 42.6914 124.332 43.5977C124.879 44.5039 125.207 45.5352 125.316 46.6914H121.801C121.762 46.0039 121.625 45.4219 121.391 44.9453C121.156 44.4609 120.801 44.0977 120.324 43.8555C119.855 43.6055 119.23 43.4805 118.449 43.4805C117.863 43.4805 117.352 43.5898 116.914 43.8086C116.477 44.0273 116.109 44.3594 115.812 44.8047C115.516 45.25 115.293 45.8125 115.145 46.4922C115.004 47.1641 114.934 47.9531 114.934 48.8594V50.0664C114.934 50.9492 115 51.7266 115.133 52.3984C115.266 53.0625 115.469 53.625 115.742 54.0859C116.023 54.5391 116.383 54.8828 116.82 55.1172C117.266 55.3438 117.801 55.457 118.426 55.457C119.16 55.457 119.766 55.3398 120.242 55.1055C120.719 54.8711 121.082 54.5234 121.332 54.0625C121.59 53.6016 121.742 53.0273 121.789 52.3398ZM126.852 51.7891V51.543C126.852 50.6133 126.984 49.7578 127.25 48.9766C127.516 48.1875 127.902 47.5039 128.41 46.9258C128.918 46.3477 129.543 45.8984 130.285 45.5781C131.027 45.25 131.879 45.0859 132.84 45.0859C133.801 45.0859 134.656 45.25 135.406 45.5781C136.156 45.8984 136.785 46.3477 137.293 46.9258C137.809 47.5039 138.199 48.1875 138.465 48.9766C138.73 49.7578 138.863 50.6133 138.863 51.543V51.7891C138.863 52.7109 138.73 53.5664 138.465 54.3555C138.199 55.1367 137.809 55.8203 137.293 56.4062C136.785 56.9844 136.16 57.4336 135.418 57.7539C134.676 58.0742 133.824 58.2344 132.863 58.2344C131.902 58.2344 131.047 58.0742 130.297 57.7539C129.555 57.4336 128.926 56.9844 128.41 56.4062C127.902 55.8203 127.516 55.1367 127.25 54.3555C126.984 53.5664 126.852 52.7109 126.852 51.7891ZM130.227 51.543V51.7891C130.227 52.3203 130.273 52.8164 130.367 53.2773C130.461 53.7383 130.609 54.1445 130.812 54.4961C131.023 54.8398 131.297 55.1094 131.633 55.3047C131.969 55.5 132.379 55.5977 132.863 55.5977C133.332 55.5977 133.734 55.5 134.07 55.3047C134.406 55.1094 134.676 54.8398 134.879 54.4961C135.082 54.1445 135.23 53.7383 135.324 53.2773C135.426 52.8164 135.477 52.3203 135.477 51.7891V51.543C135.477 51.0273 135.426 50.543 135.324 50.0898C135.23 49.6289 135.078 49.2227 134.867 48.8711C134.664 48.5117 134.395 48.2305 134.059 48.0273C133.723 47.8242 133.316 47.7227 132.84 47.7227C132.363 47.7227 131.957 47.8242 131.621 48.0273C131.293 48.2305 131.023 48.5117 130.812 48.8711C130.609 49.2227 130.461 49.6289 130.367 50.0898C130.273 50.543 130.227 51.0273 130.227 51.543ZM148.426 55.2344V40H151.824V58H148.766L148.426 55.2344ZM140.41 51.8125V51.5664C140.41 50.5977 140.52 49.7188 140.738 48.9297C140.957 48.1328 141.277 47.4492 141.699 46.8789C142.121 46.3086 142.641 45.8672 143.258 45.5547C143.875 45.2422 144.578 45.0859 145.367 45.0859C146.109 45.0859 146.758 45.2422 147.312 45.5547C147.875 45.8672 148.352 46.3125 148.742 46.8906C149.141 47.4609 149.461 48.1367 149.703 48.918C149.945 49.6914 150.121 50.5391 150.23 51.4609V52C150.121 52.8828 149.945 53.7031 149.703 54.4609C149.461 55.2188 149.141 55.8828 148.742 56.4531C148.352 57.0156 147.875 57.4531 147.312 57.7656C146.75 58.0781 146.094 58.2344 145.344 58.2344C144.555 58.2344 143.852 58.0742 143.234 57.7539C142.625 57.4336 142.109 56.9844 141.688 56.4062C141.273 55.8281 140.957 55.1484 140.738 54.3672C140.52 53.5859 140.41 52.7344 140.41 51.8125ZM143.785 51.5664V51.8125C143.785 52.3359 143.824 52.8242 143.902 53.2773C143.988 53.7305 144.125 54.1328 144.312 54.4844C144.508 54.8281 144.758 55.0977 145.062 55.293C145.375 55.4805 145.754 55.5742 146.199 55.5742C146.777 55.5742 147.254 55.4453 147.629 55.1875C148.004 54.9219 148.289 54.5586 148.484 54.0977C148.688 53.6367 148.805 53.1055 148.836 52.5039V50.9688C148.812 50.4766 148.742 50.0352 148.625 49.6445C148.516 49.2461 148.352 48.9062 148.133 48.625C147.922 48.3438 147.656 48.125 147.336 47.9688C147.023 47.8125 146.652 47.7344 146.223 47.7344C145.785 47.7344 145.41 47.8359 145.098 48.0391C144.785 48.2344 144.531 48.5039 144.336 48.8477C144.148 49.1914 144.008 49.5977 143.914 50.0664C143.828 50.5273 143.785 51.0273 143.785 51.5664ZM160.297 58.2344C159.312 58.2344 158.43 58.0781 157.648 57.7656C156.867 57.4453 156.203 57.0039 155.656 56.4414C155.117 55.8789 154.703 55.2266 154.414 54.4844C154.125 53.7344 153.98 52.9375 153.98 52.0938V51.625C153.98 50.6641 154.117 49.7852 154.391 48.9883C154.664 48.1914 155.055 47.5 155.562 46.9141C156.078 46.3281 156.703 45.8789 157.438 45.5664C158.172 45.2461 159 45.0859 159.922 45.0859C160.82 45.0859 161.617 45.2344 162.312 45.5312C163.008 45.8281 163.59 46.25 164.059 46.7969C164.535 47.3438 164.895 48 165.137 48.7656C165.379 49.5234 165.5 50.3672 165.5 51.2969V52.7031H155.422V50.4531H162.184V50.1953C162.184 49.7266 162.098 49.3086 161.926 48.9414C161.762 48.5664 161.512 48.2695 161.176 48.0508C160.84 47.832 160.41 47.7227 159.887 47.7227C159.441 47.7227 159.059 47.8203 158.738 48.0156C158.418 48.2109 158.156 48.4844 157.953 48.8359C157.758 49.1875 157.609 49.6016 157.508 50.0781C157.414 50.5469 157.367 51.0625 157.367 51.625V52.0938C157.367 52.6016 157.438 53.0703 157.578 53.5C157.727 53.9297 157.934 54.3008 158.199 54.6133C158.473 54.9258 158.801 55.168 159.184 55.3398C159.574 55.5117 160.016 55.5977 160.508 55.5977C161.117 55.5977 161.684 55.4805 162.207 55.2461C162.738 55.0039 163.195 54.6406 163.578 54.1562L165.219 55.9375C164.953 56.3203 164.59 56.6875 164.129 57.0391C163.676 57.3906 163.129 57.6797 162.488 57.9062C161.848 58.125 161.117 58.2344 160.297 58.2344ZM171.746 55.293L175.145 40.9375H177.043L177.477 43.3281L173.855 58H171.816L171.746 55.293ZM170 40.9375L172.812 55.293L172.578 58H170.305L166.52 40.9375H170ZM180.465 55.2344L183.242 40.9375H186.723L182.949 58H180.676L180.465 55.2344ZM178.109 40.9375L181.531 55.3516L181.438 58H179.398L175.754 43.3164L176.223 40.9375H178.109ZM191.984 45.3203V58H188.598V45.3203H191.984ZM188.387 42.0156C188.387 41.5234 188.559 41.1172 188.902 40.7969C189.246 40.4766 189.707 40.3164 190.285 40.3164C190.855 40.3164 191.312 40.4766 191.656 40.7969C192.008 41.1172 192.184 41.5234 192.184 42.0156C192.184 42.5078 192.008 42.9141 191.656 43.2344C191.312 43.5547 190.855 43.7148 190.285 43.7148C189.707 43.7148 189.246 43.5547 188.902 43.2344C188.559 42.9141 188.387 42.5078 188.387 42.0156ZM200.984 45.3203V47.7109H193.602V45.3203H200.984ZM195.43 42.1914H198.805V54.1797C198.805 54.5469 198.852 54.8281 198.945 55.0234C199.047 55.2188 199.195 55.3555 199.391 55.4336C199.586 55.5039 199.832 55.5391 200.129 55.5391C200.34 55.5391 200.527 55.5312 200.691 55.5156C200.863 55.4922 201.008 55.4688 201.125 55.4453L201.137 57.9297C200.848 58.0234 200.535 58.0977 200.199 58.1523C199.863 58.207 199.492 58.2344 199.086 58.2344C198.344 58.2344 197.695 58.1133 197.141 57.8711C196.594 57.6211 196.172 57.2227 195.875 56.6758C195.578 56.1289 195.43 55.4102 195.43 54.5195V42.1914ZM206.199 40V58H202.824V40H206.199ZM205.719 51.2148H204.793C204.801 50.332 204.918 49.5195 205.145 48.7773C205.371 48.0273 205.695 47.3789 206.117 46.832C206.539 46.2773 207.043 45.8477 207.629 45.543C208.223 45.2383 208.879 45.0859 209.598 45.0859C210.223 45.0859 210.789 45.1758 211.297 45.3555C211.812 45.5273 212.254 45.8086 212.621 46.1992C212.996 46.582 213.285 47.0859 213.488 47.7109C213.691 48.3359 213.793 49.0938 213.793 49.9844V58H210.395V49.9609C210.395 49.3984 210.312 48.957 210.148 48.6367C209.992 48.3086 209.762 48.0781 209.457 47.9453C209.16 47.8047 208.793 47.7344 208.355 47.7344C207.871 47.7344 207.457 47.8242 207.113 48.0039C206.777 48.1836 206.508 48.4336 206.305 48.7539C206.102 49.0664 205.953 49.4336 205.859 49.8555C205.766 50.2773 205.719 50.7305 205.719 51.2148ZM218.176 40.9375H221.152L225.535 53.4648L229.918 40.9375H232.895L226.73 58H224.34L218.176 40.9375ZM216.57 40.9375H219.535L220.074 53.1484V58H216.57V40.9375ZM231.535 40.9375H234.512V58H230.996V53.1484L231.535 40.9375ZM243.219 58.2344C242.234 58.2344 241.352 58.0781 240.57 57.7656C239.789 57.4453 239.125 57.0039 238.578 56.4414C238.039 55.8789 237.625 55.2266 237.336 54.4844C237.047 53.7344 236.902 52.9375 236.902 52.0938V51.625C236.902 50.6641 237.039 49.7852 237.312 48.9883C237.586 48.1914 237.977 47.5 238.484 46.9141C239 46.3281 239.625 45.8789 240.359 45.5664C241.094 45.2461 241.922 45.0859 242.844 45.0859C243.742 45.0859 244.539 45.2344 245.234 45.5312C245.93 45.8281 246.512 46.25 246.98 46.7969C247.457 47.3438 247.816 48 248.059 48.7656C248.301 49.5234 248.422 50.3672 248.422 51.2969V52.7031H238.344V50.4531H245.105V50.1953C245.105 49.7266 245.02 49.3086 244.848 48.9414C244.684 48.5664 244.434 48.2695 244.098 48.0508C243.762 47.832 243.332 47.7227 242.809 47.7227C242.363 47.7227 241.98 47.8203 241.66 48.0156C241.34 48.2109 241.078 48.4844 240.875 48.8359C240.68 49.1875 240.531 49.6016 240.43 50.0781C240.336 50.5469 240.289 51.0625 240.289 51.625V52.0938C240.289 52.6016 240.359 53.0703 240.5 53.5C240.648 53.9297 240.855 54.3008 241.121 54.6133C241.395 54.9258 241.723 55.168 242.105 55.3398C242.496 55.5117 242.938 55.5977 243.43 55.5977C244.039 55.5977 244.605 55.4805 245.129 55.2461C245.66 55.0039 246.117 54.6406 246.5 54.1562L248.141 55.9375C247.875 56.3203 247.512 56.6875 247.051 57.0391C246.598 57.3906 246.051 57.6797 245.41 57.9062C244.77 58.125 244.039 58.2344 243.219 58.2344Z" fill="#888888"/>
<path d="M115.994 98.708V104.641H99.5806V98.708H115.994ZM102.151 86.0078V118H94.439V86.0078H102.151ZM121.18 86.0078V118H113.489V86.0078H121.18ZM124.805 106.354V105.893C124.805 104.15 125.054 102.546 125.552 101.081C126.05 99.6016 126.783 98.3198 127.75 97.2358C128.716 96.1519 129.91 95.3096 131.331 94.709C132.752 94.0938 134.393 93.7861 136.253 93.7861C138.128 93.7861 139.776 94.0938 141.197 94.709C142.632 95.3096 143.833 96.1519 144.8 97.2358C145.767 98.3198 146.5 99.6016 146.998 101.081C147.496 102.546 147.745 104.15 147.745 105.893V106.354C147.745 108.083 147.496 109.687 146.998 111.167C146.5 112.631 145.767 113.913 144.8 115.012C143.833 116.096 142.64 116.938 141.219 117.539C139.798 118.139 138.157 118.439 136.297 118.439C134.437 118.439 132.789 118.139 131.353 117.539C129.917 116.938 128.716 116.096 127.75 115.012C126.783 113.913 126.05 112.631 125.552 111.167C125.054 109.687 124.805 108.083 124.805 106.354ZM132.21 105.893V106.354C132.21 107.248 132.276 108.083 132.408 108.859C132.54 109.636 132.759 110.317 133.067 110.903C133.375 111.474 133.792 111.921 134.319 112.243C134.847 112.565 135.506 112.727 136.297 112.727C137.073 112.727 137.718 112.565 138.23 112.243C138.758 111.921 139.175 111.474 139.483 110.903C139.791 110.317 140.01 109.636 140.142 108.859C140.274 108.083 140.34 107.248 140.34 106.354V105.893C140.34 105.029 140.274 104.216 140.142 103.454C140.01 102.678 139.791 101.997 139.483 101.411C139.175 100.81 138.758 100.341 138.23 100.004C137.703 99.6675 137.044 99.499 136.253 99.499C135.477 99.499 134.825 99.6675 134.297 100.004C133.785 100.341 133.375 100.81 133.067 101.411C132.759 101.997 132.54 102.678 132.408 103.454C132.276 104.216 132.21 105.029 132.21 105.893ZM158.27 110.925L162.664 94.2256H167.3L165.652 102.597L161.302 118H157.588L158.27 110.925ZM156.534 94.2256L159.258 110.793L159.566 118H155.062L149.437 94.2256H156.534ZM171.211 110.441L173.958 94.2256H181.055L175.474 118H170.97L171.211 110.441ZM167.828 94.2256L172.266 110.881L172.947 118H169.19L164.927 102.641L163.345 94.2256H167.828ZM209.466 86.0078V118H201.753V86.0078H209.466ZM219.09 86.0078V91.9624H192.349V86.0078H219.09ZM216.475 106.354V105.893C216.475 104.15 216.724 102.546 217.222 101.081C217.72 99.6016 218.453 98.3198 219.419 97.2358C220.386 96.1519 221.58 95.3096 223.001 94.709C224.422 94.0938 226.062 93.7861 227.923 93.7861C229.798 93.7861 231.446 94.0938 232.867 94.709C234.302 95.3096 235.503 96.1519 236.47 97.2358C237.437 98.3198 238.169 99.6016 238.667 101.081C239.166 102.546 239.415 104.15 239.415 105.893V106.354C239.415 108.083 239.166 109.687 238.667 111.167C238.169 112.631 237.437 113.913 236.47 115.012C235.503 116.096 234.31 116.938 232.889 117.539C231.468 118.139 229.827 118.439 227.967 118.439C226.106 118.439 224.458 118.139 223.023 117.539C221.587 116.938 220.386 116.096 219.419 115.012C218.453 113.913 217.72 112.631 217.222 111.167C216.724 109.687 216.475 108.083 216.475 106.354ZM223.88 105.893V106.354C223.88 107.248 223.946 108.083 224.078 108.859C224.209 109.636 224.429 110.317 224.737 110.903C225.044 111.474 225.462 111.921 225.989 112.243C226.517 112.565 227.176 112.727 227.967 112.727C228.743 112.727 229.388 112.565 229.9 112.243C230.428 111.921 230.845 111.474 231.153 110.903C231.46 110.317 231.68 109.636 231.812 108.859C231.944 108.083 232.01 107.248 232.01 106.354V105.893C232.01 105.029 231.944 104.216 231.812 103.454C231.68 102.678 231.46 101.997 231.153 101.411C230.845 100.81 230.428 100.341 229.9 100.004C229.373 99.6675 228.714 99.499 227.923 99.499C227.146 99.499 226.495 99.6675 225.967 100.004C225.455 100.341 225.044 100.81 224.737 101.411C224.429 101.997 224.209 102.678 224.078 103.454C223.946 104.216 223.88 105.029 223.88 105.893ZM254.268 86.0078H266.858C269.319 86.0078 271.458 86.374 273.274 87.1064C275.091 87.8389 276.49 88.9229 277.471 90.3584C278.467 91.7939 278.965 93.5664 278.965 95.6758C278.965 97.5068 278.68 99.0376 278.108 100.268C277.537 101.499 276.739 102.517 275.713 103.322C274.703 104.113 273.523 104.765 272.176 105.278L269.649 106.706H259.08L259.036 100.751H266.858C267.84 100.751 268.653 100.576 269.297 100.224C269.942 99.8726 270.425 99.3745 270.748 98.73C271.084 98.0708 271.253 97.2871 271.253 96.3789C271.253 95.4561 271.084 94.665 270.748 94.0059C270.411 93.3467 269.913 92.8413 269.253 92.4897C268.609 92.1382 267.811 91.9624 266.858 91.9624H261.98V118H254.268V86.0078ZM271.78 118L264.705 103.85L272.879 103.806L280.042 117.67V118H271.78ZM297.159 112.221V94.2256H304.585V118H297.642L297.159 112.221ZM297.862 107.387L299.795 107.343C299.795 108.94 299.605 110.419 299.224 111.782C298.843 113.129 298.279 114.301 297.532 115.297C296.8 116.293 295.892 117.07 294.808 117.626C293.738 118.168 292.5 118.439 291.094 118.439C289.922 118.439 288.846 118.278 287.864 117.956C286.897 117.619 286.062 117.099 285.359 116.396C284.656 115.678 284.107 114.763 283.711 113.649C283.331 112.521 283.14 111.174 283.14 109.606V94.2256H290.545V109.65C290.545 110.178 290.611 110.632 290.743 111.013C290.875 111.394 291.065 111.716 291.314 111.979C291.563 112.229 291.871 112.419 292.237 112.551C292.618 112.668 293.05 112.727 293.533 112.727C294.646 112.727 295.518 112.492 296.148 112.023C296.778 111.555 297.217 110.917 297.466 110.112C297.73 109.306 297.862 108.398 297.862 107.387ZM315.945 99.3013V118H308.541V94.2256H315.484L315.945 99.3013ZM315.066 105.3L313.331 105.344C313.331 103.527 313.55 101.909 313.99 100.488C314.429 99.0522 315.052 97.8364 315.857 96.8403C316.663 95.8442 317.623 95.0898 318.736 94.5771C319.864 94.0498 321.116 93.7861 322.493 93.7861C323.592 93.7861 324.595 93.9473 325.503 94.2695C326.426 94.5918 327.217 95.1118 327.876 95.8296C328.55 96.5474 329.063 97.4995 329.415 98.686C329.781 99.8579 329.964 101.308 329.964 103.037V118H322.515V103.015C322.515 102.062 322.383 101.337 322.12 100.839C321.856 100.327 321.475 99.9751 320.977 99.7847C320.479 99.5942 319.871 99.499 319.153 99.499C318.392 99.499 317.747 99.6455 317.22 99.9385C316.692 100.231 316.268 100.642 315.945 101.169C315.638 101.682 315.411 102.29 315.264 102.993C315.132 103.696 315.066 104.465 315.066 105.3ZM345.85 107.871H339.544C339.544 106.582 339.632 105.446 339.808 104.465C339.998 103.469 340.32 102.575 340.774 101.784C341.229 100.993 341.844 100.261 342.62 99.5869C343.309 99.0156 343.902 98.4663 344.4 97.939C344.898 97.4116 345.279 96.877 345.542 96.335C345.806 95.793 345.938 95.2144 345.938 94.5991C345.938 93.8374 345.828 93.2148 345.608 92.7314C345.403 92.248 345.088 91.8892 344.664 91.6548C344.253 91.4058 343.733 91.2812 343.104 91.2812C342.591 91.2812 342.107 91.4058 341.653 91.6548C341.214 91.9038 340.855 92.292 340.577 92.8193C340.298 93.332 340.145 94.0132 340.115 94.8628H332.667C332.71 92.6802 333.194 90.9077 334.117 89.5454C335.054 88.1685 336.299 87.165 337.852 86.5352C339.419 85.8906 341.17 85.5684 343.104 85.5684C345.242 85.5684 347.081 85.8979 348.619 86.5571C350.157 87.2163 351.336 88.1978 352.156 89.5015C352.977 90.7905 353.387 92.3799 353.387 94.2695C353.387 95.5293 353.145 96.6279 352.662 97.5654C352.193 98.4883 351.556 99.3525 350.75 100.158C349.959 100.949 349.073 101.799 348.091 102.707C347.242 103.454 346.663 104.216 346.355 104.992C346.048 105.754 345.879 106.713 345.85 107.871ZM338.643 114.55C338.643 113.496 339.024 112.617 339.786 111.914C340.547 111.196 341.536 110.837 342.752 110.837C343.968 110.837 344.957 111.196 345.718 111.914C346.48 112.617 346.861 113.496 346.861 114.55C346.861 115.605 346.48 116.491 345.718 117.209C344.957 117.912 343.968 118.264 342.752 118.264C341.536 118.264 340.547 117.912 339.786 117.209C339.024 116.491 338.643 115.605 338.643 114.55Z" fill="white"/>
<path d="M1363 15C1363 6.71573 1356.28 0 1348 0H1134V167H1348C1356.28 167 1363 160.284 1363 152V15Z" fill="#3E97FC"/>
<path d="M1260.77 81.3079C1263.96 81.3079 1267.09 82.2553 1269.74 84.0303C1272.4 85.8053 1274.47 88.3282 1275.69 91.2799C1276.92 94.2316 1277.24 97.4796 1276.61 100.613C1275.99 103.747 1274.45 106.625 1272.19 108.884C1269.93 111.143 1267.05 112.682 1263.92 113.305C1260.79 113.928 1257.54 113.608 1254.59 112.386C1251.64 111.163 1249.11 109.093 1247.34 106.436C1245.56 103.78 1244.62 100.657 1244.62 97.4617C1244.62 93.1774 1246.32 89.0686 1249.35 86.0392C1252.38 83.0098 1256.48 81.3079 1260.77 81.3079ZM1260.77 75.9233C1256.51 75.9233 1252.35 77.1865 1248.8 79.5532C1245.26 81.9198 1242.5 85.2837 1240.87 89.2193C1239.24 93.1549 1238.81 97.4856 1239.64 101.664C1240.48 105.842 1242.53 109.679 1245.54 112.692C1248.55 115.704 1252.39 117.755 1256.57 118.586C1260.75 119.417 1265.08 118.991 1269.01 117.361C1272.95 115.73 1276.31 112.97 1278.68 109.428C1281.04 105.886 1282.31 101.722 1282.31 97.4617C1282.31 91.7493 1280.04 86.271 1276 82.2317C1271.96 78.1925 1266.48 75.9233 1260.77 75.9233Z" fill="white"/>
<path d="M1274.23 49H1220.38C1218.96 49 1217.59 49.5673 1216.58 50.5771C1215.57 51.5869 1215 52.9565 1215 54.3846V108.231C1215 109.659 1215.57 111.028 1216.58 112.038C1217.59 113.048 1218.96 113.615 1220.38 113.615H1231.15V108.231H1220.38V70.5384H1279.62V54.3846C1279.62 52.9565 1279.05 51.5869 1278.04 50.5771C1277.03 49.5673 1275.66 49 1274.23 49ZM1220.38 65.1538V54.3846H1274.23V65.1538H1220.38Z" fill="white"/>
<path d="M1255.38 89.3849V105.539L1268.85 97.4618L1255.38 89.3849Z" fill="white"/>
</svg>
