<svg width="1363" height="301" viewBox="0 0 1363 301" fill="none" xmlns="http://www.w3.org/2000/svg">
<rect width="1363" height="301" rx="32" fill="white"/>
<rect width="1363" height="301" rx="15" fill="#1E1E1E"/>
<path d="M0 15C0 6.71573 6.71573 0 15 0H37V301H15C6.71573 301 0 294.284 0 286V15Z" fill="#3E97FC"/>
<path d="M117.217 130.76H126.617C126.491 133.482 125.757 135.881 124.415 137.958C123.072 140.034 121.21 141.655 118.829 142.818C116.465 143.964 113.672 144.537 110.45 144.537C107.836 144.537 105.499 144.098 103.44 143.221C101.399 142.344 99.6628 141.082 98.2305 139.435C96.8161 137.787 95.7329 135.791 94.981 133.446C94.2469 131.1 93.8799 128.46 93.8799 125.523V123.402C93.8799 120.466 94.2648 117.825 95.0347 115.479C95.8224 113.116 96.9325 111.111 98.3647 109.464C99.8149 107.799 101.552 106.528 103.575 105.65C105.598 104.773 107.845 104.334 110.315 104.334C113.717 104.334 116.591 104.943 118.936 106.161C121.281 107.378 123.099 109.052 124.388 111.183C125.677 113.295 126.438 115.703 126.67 118.407H117.271C117.235 116.939 116.985 115.712 116.519 114.728C116.054 113.725 115.319 112.973 114.317 112.472C113.314 111.97 111.98 111.72 110.315 111.72C109.152 111.72 108.14 111.935 107.281 112.364C106.421 112.794 105.705 113.474 105.132 114.405C104.559 115.336 104.13 116.545 103.843 118.031C103.575 119.499 103.44 121.271 103.44 123.348V125.523C103.44 127.6 103.566 129.373 103.816 130.841C104.067 132.309 104.47 133.508 105.025 134.439C105.58 135.37 106.296 136.06 107.173 136.507C108.069 136.937 109.161 137.152 110.45 137.152C111.882 137.152 113.09 136.928 114.075 136.48C115.06 136.015 115.821 135.317 116.358 134.386C116.895 133.437 117.181 132.228 117.217 130.76ZM129.517 129.767V129.203C129.517 127.072 129.821 125.112 130.43 123.321C131.039 121.513 131.934 119.946 133.116 118.622C134.297 117.297 135.757 116.267 137.493 115.533C139.23 114.781 141.235 114.405 143.509 114.405C145.8 114.405 147.815 114.781 149.551 115.533C151.306 116.267 152.774 117.297 153.956 118.622C155.137 119.946 156.032 121.513 156.641 123.321C157.25 125.112 157.554 127.072 157.554 129.203V129.767C157.554 131.879 157.25 133.84 156.641 135.648C156.032 137.438 155.137 139.005 153.956 140.348C152.774 141.673 151.315 142.702 149.578 143.436C147.841 144.17 145.836 144.537 143.562 144.537C141.289 144.537 139.275 144.17 137.52 143.436C135.765 142.702 134.297 141.673 133.116 140.348C131.934 139.005 131.039 137.438 130.43 135.648C129.821 133.84 129.517 131.879 129.517 129.767ZM138.567 129.203V129.767C138.567 130.859 138.648 131.879 138.809 132.828C138.97 133.777 139.239 134.61 139.615 135.326C139.991 136.024 140.501 136.57 141.146 136.964C141.79 137.358 142.596 137.555 143.562 137.555C144.511 137.555 145.299 137.358 145.926 136.964C146.57 136.57 147.081 136.024 147.457 135.326C147.833 134.61 148.101 133.777 148.262 132.828C148.423 131.879 148.504 130.859 148.504 129.767V129.203C148.504 128.146 148.423 127.153 148.262 126.222C148.101 125.273 147.833 124.44 147.457 123.724C147.081 122.99 146.57 122.417 145.926 122.005C145.281 121.594 144.476 121.388 143.509 121.388C142.56 121.388 141.763 121.594 141.119 122.005C140.492 122.417 139.991 122.99 139.615 123.724C139.239 124.44 138.97 125.273 138.809 126.222C138.648 127.153 138.567 128.146 138.567 129.203ZM178.287 137.34V102.75H187.391V144H179.227L178.287 137.34ZM160.455 129.82V129.256C160.455 127.054 160.696 125.049 161.18 123.241C161.663 121.415 162.379 119.848 163.328 118.541C164.277 117.216 165.459 116.196 166.873 115.479C168.287 114.763 169.917 114.405 171.761 114.405C173.408 114.405 174.849 114.79 176.084 115.56C177.32 116.312 178.376 117.368 179.253 118.729C180.131 120.09 180.847 121.683 181.402 123.509C181.957 125.318 182.378 127.269 182.664 129.364V130.035C182.378 132.005 181.957 133.867 181.402 135.621C180.847 137.358 180.131 138.897 179.253 140.24C178.376 141.583 177.311 142.639 176.058 143.409C174.822 144.161 173.372 144.537 171.707 144.537C169.863 144.537 168.234 144.17 166.819 143.436C165.423 142.702 164.25 141.673 163.301 140.348C162.37 139.023 161.663 137.465 161.18 135.675C160.696 133.884 160.455 131.933 160.455 129.82ZM169.505 129.256V129.82C169.505 130.912 169.576 131.924 169.72 132.855C169.863 133.786 170.105 134.61 170.445 135.326C170.803 136.024 171.268 136.57 171.841 136.964C172.432 137.358 173.157 137.555 174.017 137.555C175.18 137.555 176.138 137.277 176.89 136.722C177.66 136.167 178.224 135.379 178.582 134.359C178.958 133.338 179.119 132.139 179.065 130.76V128.639C179.101 127.457 179.021 126.419 178.824 125.523C178.627 124.61 178.313 123.849 177.884 123.241C177.472 122.632 176.944 122.175 176.299 121.871C175.673 121.549 174.93 121.388 174.07 121.388C173.229 121.388 172.513 121.585 171.922 121.979C171.349 122.372 170.883 122.927 170.525 123.644C170.167 124.342 169.908 125.174 169.747 126.141C169.585 127.09 169.505 128.128 169.505 129.256ZM206.592 144.537C204.229 144.537 202.116 144.17 200.254 143.436C198.392 142.684 196.817 141.655 195.528 140.348C194.257 139.041 193.281 137.537 192.601 135.836C191.938 134.135 191.607 132.336 191.607 130.438V129.417C191.607 127.287 191.902 125.318 192.493 123.509C193.084 121.683 193.961 120.09 195.125 118.729C196.289 117.368 197.748 116.312 199.502 115.56C201.257 114.79 203.298 114.405 205.625 114.405C207.684 114.405 209.528 114.736 211.158 115.399C212.787 116.061 214.166 117.01 215.293 118.246C216.439 119.481 217.308 120.976 217.898 122.73C218.507 124.485 218.812 126.454 218.812 128.639V132.318H195.071V126.651H209.976V125.953C209.994 124.986 209.824 124.163 209.466 123.482C209.126 122.802 208.624 122.283 207.962 121.925C207.299 121.567 206.494 121.388 205.545 121.388C204.56 121.388 203.746 121.603 203.101 122.032C202.474 122.462 201.982 123.053 201.624 123.805C201.284 124.539 201.042 125.389 200.899 126.356C200.756 127.323 200.684 128.343 200.684 129.417V130.438C200.684 131.512 200.827 132.488 201.114 133.365C201.418 134.243 201.848 134.994 202.403 135.621C202.976 136.23 203.656 136.704 204.444 137.044C205.25 137.385 206.163 137.555 207.183 137.555C208.418 137.555 209.636 137.322 210.835 136.856C212.035 136.391 213.064 135.621 213.924 134.547L218.033 139.435C217.442 140.276 216.6 141.091 215.508 141.878C214.434 142.666 213.145 143.311 211.641 143.812C210.137 144.295 208.454 144.537 206.592 144.537ZM231.944 140.455L239.732 104.898H244.378L246.902 107.933L238.604 144H233.475L231.944 140.455ZM229.876 104.898L236.456 140.724L234.764 144H228.829L220.53 104.898H229.876ZM251.172 140.536L257.698 104.898H267.017L258.719 144H252.811L251.172 140.536ZM247.735 104.898L255.711 140.67L254.1 144H248.97L240.484 107.879L243.116 104.898H247.735ZM279.854 114.942V144H270.777V114.942H279.854ZM270.24 107.45C270.24 106.161 270.705 105.104 271.636 104.281C272.567 103.457 273.776 103.045 275.262 103.045C276.748 103.045 277.956 103.457 278.887 104.281C279.818 105.104 280.284 106.161 280.284 107.45C280.284 108.739 279.818 109.795 278.887 110.619C277.956 111.442 276.748 111.854 275.262 111.854C273.776 111.854 272.567 111.442 271.636 110.619C270.705 109.795 270.24 108.739 270.24 107.45ZM300.748 114.942V121.227H283.238V114.942H300.748ZM286.917 107.718H295.967V134.52C295.967 135.29 296.057 135.89 296.236 136.319C296.415 136.731 296.719 137.027 297.149 137.206C297.597 137.367 298.187 137.447 298.921 137.447C299.441 137.447 299.87 137.438 300.21 137.42C300.551 137.385 300.873 137.34 301.177 137.286V143.758C300.407 144.009 299.602 144.197 298.76 144.322C297.919 144.465 297.024 144.537 296.075 144.537C294.141 144.537 292.485 144.233 291.106 143.624C289.746 143.015 288.707 142.057 287.991 140.75C287.275 139.444 286.917 137.743 286.917 135.648V107.718ZM313.208 102.75V144H304.158V102.75H313.208ZM312.134 128.478L310.013 128.531C310.013 126.49 310.263 124.61 310.765 122.892C311.266 121.173 311.982 119.678 312.913 118.407C313.844 117.136 314.963 116.151 316.27 115.453C317.577 114.754 319.027 114.405 320.621 114.405C322.053 114.405 323.36 114.611 324.542 115.023C325.741 115.435 326.771 116.097 327.63 117.01C328.507 117.923 329.179 119.114 329.644 120.582C330.127 122.05 330.369 123.84 330.369 125.953V144H321.265V125.899C321.265 124.718 321.095 123.805 320.755 123.16C320.433 122.498 319.967 122.041 319.358 121.791C318.75 121.522 318.007 121.388 317.129 121.388C316.073 121.388 315.214 121.567 314.551 121.925C313.889 122.283 313.379 122.784 313.021 123.429C312.68 124.055 312.448 124.798 312.322 125.658C312.197 126.517 312.134 127.457 312.134 128.478ZM340.494 104.898H348.174L356.902 132.103L365.63 104.898H373.311L360.018 144H353.787L340.494 104.898ZM335.821 104.898H343.77L345.247 134.869V144H335.821V104.898ZM370.035 104.898H378.011V144H368.558V134.869L370.035 104.898ZM397.696 144.537C395.333 144.537 393.22 144.17 391.358 143.436C389.496 142.684 387.92 141.655 386.631 140.348C385.36 139.041 384.384 137.537 383.704 135.836C383.042 134.135 382.71 132.336 382.71 130.438V129.417C382.71 127.287 383.006 125.318 383.597 123.509C384.188 121.683 385.065 120.09 386.229 118.729C387.392 117.368 388.851 116.312 390.606 115.56C392.361 114.79 394.402 114.405 396.729 114.405C398.788 114.405 400.632 114.736 402.261 115.399C403.89 116.061 405.269 117.01 406.397 118.246C407.543 119.481 408.411 120.976 409.002 122.73C409.611 124.485 409.915 126.454 409.915 128.639V132.318H386.175V126.651H401.08V125.953C401.097 124.986 400.927 124.163 400.569 123.482C400.229 122.802 399.728 122.283 399.065 121.925C398.403 121.567 397.597 121.388 396.648 121.388C395.664 121.388 394.849 121.603 394.205 122.032C393.578 122.462 393.086 123.053 392.728 123.805C392.387 124.539 392.146 125.389 392.002 126.356C391.859 127.323 391.788 128.343 391.788 129.417V130.438C391.788 131.512 391.931 132.488 392.217 133.365C392.522 134.243 392.951 134.994 393.506 135.621C394.079 136.23 394.76 136.704 395.547 137.044C396.353 137.385 397.266 137.555 398.287 137.555C399.522 137.555 400.739 137.322 401.939 136.856C403.139 136.391 404.168 135.621 405.027 134.547L409.136 139.435C408.545 140.276 407.704 141.091 406.612 141.878C405.538 142.666 404.249 143.311 402.745 143.812C401.241 144.295 399.558 144.537 397.696 144.537Z" fill="white"/>
<path d="M104.288 72.3608V55.1172H109.397V72.3608C109.397 74.0243 109.033 75.4541 108.304 76.6504C107.575 77.8353 106.578 78.7467 105.313 79.3848C104.06 80.0228 102.647 80.3418 101.075 80.3418C99.4455 80.3418 98.0042 80.0684 96.751 79.5215C95.4977 78.9746 94.5122 78.1372 93.7944 77.0093C93.0767 75.87 92.7178 74.4287 92.7178 72.6855H97.8618C97.8618 73.597 97.9871 74.3205 98.2378 74.856C98.4998 75.3914 98.8701 75.7731 99.3486 76.001C99.8271 76.2288 100.403 76.3428 101.075 76.3428C101.724 76.3428 102.288 76.189 102.767 75.8813C103.245 75.5737 103.615 75.1237 103.877 74.5312C104.151 73.9388 104.288 73.2153 104.288 72.3608ZM123.445 75.8301V67.5928C123.445 67.0003 123.348 66.4933 123.155 66.0718C122.961 65.6388 122.659 65.3027 122.249 65.0635C121.85 64.8242 121.332 64.7046 120.694 64.7046C120.147 64.7046 119.674 64.8014 119.275 64.9951C118.877 65.1774 118.569 65.4451 118.353 65.7983C118.136 66.1401 118.028 66.5446 118.028 67.0117H113.106C113.106 66.2256 113.288 65.4793 113.653 64.7729C114.017 64.0666 114.547 63.4456 115.242 62.9102C115.937 62.3633 116.763 61.936 117.72 61.6284C118.689 61.3208 119.771 61.167 120.967 61.167C122.403 61.167 123.679 61.4062 124.795 61.8848C125.912 62.3633 126.789 63.0811 127.427 64.0381C128.077 64.9951 128.401 66.1914 128.401 67.627V75.5396C128.401 76.5535 128.464 77.3853 128.589 78.0347C128.715 78.6727 128.897 79.231 129.136 79.7095V80H124.163C123.924 79.4987 123.742 78.8721 123.616 78.1201C123.502 77.3568 123.445 76.5934 123.445 75.8301ZM124.095 68.7378L124.129 71.5234H121.377C120.728 71.5234 120.164 71.5975 119.686 71.7456C119.207 71.8937 118.814 72.1045 118.506 72.3779C118.199 72.64 117.971 72.9476 117.823 73.3008C117.686 73.654 117.618 74.0413 117.618 74.4629C117.618 74.8844 117.715 75.2661 117.908 75.6079C118.102 75.9383 118.381 76.2004 118.746 76.394C119.11 76.5763 119.537 76.6675 120.027 76.6675C120.768 76.6675 121.412 76.5194 121.958 76.2231C122.505 75.9269 122.927 75.5623 123.223 75.1294C123.531 74.6965 123.69 74.2863 123.702 73.8989L125 75.9839C124.818 76.451 124.568 76.9352 124.249 77.4365C123.941 77.9378 123.548 78.4106 123.069 78.855C122.591 79.2879 122.015 79.6468 121.343 79.9316C120.671 80.2051 119.874 80.3418 118.951 80.3418C117.777 80.3418 116.712 80.1082 115.755 79.6411C114.809 79.1626 114.057 78.5075 113.499 77.6758C112.952 76.8327 112.679 75.8757 112.679 74.8047C112.679 73.8363 112.861 72.9761 113.226 72.2241C113.59 71.4722 114.126 70.8398 114.832 70.3271C115.55 69.8031 116.444 69.41 117.515 69.1479C118.586 68.8745 119.828 68.7378 121.241 68.7378H124.095ZM143.116 75.9668V53.75H148.072V80H143.611L143.116 75.9668ZM131.426 70.9766V70.6177C131.426 69.2049 131.586 67.9232 131.905 66.7725C132.224 65.6104 132.691 64.6134 133.306 63.7817C133.921 62.95 134.679 62.3063 135.579 61.8506C136.479 61.3949 137.505 61.167 138.655 61.167C139.738 61.167 140.683 61.3949 141.492 61.8506C142.312 62.3063 143.007 62.9557 143.577 63.7988C144.158 64.6305 144.625 65.616 144.979 66.7554C145.332 67.8833 145.588 69.1195 145.748 70.4639V71.25C145.588 72.5374 145.332 73.7337 144.979 74.8389C144.625 75.944 144.158 76.9124 143.577 77.7441C143.007 78.5645 142.312 79.2025 141.492 79.6582C140.672 80.1139 139.715 80.3418 138.621 80.3418C137.47 80.3418 136.445 80.1082 135.545 79.6411C134.656 79.174 133.904 78.5189 133.289 77.6758C132.685 76.8327 132.224 75.8415 131.905 74.7021C131.586 73.5628 131.426 72.321 131.426 70.9766ZM136.348 70.6177V70.9766C136.348 71.7399 136.405 72.452 136.519 73.1128C136.644 73.7736 136.844 74.3604 137.117 74.873C137.402 75.3743 137.767 75.7674 138.211 76.0522C138.667 76.3257 139.219 76.4624 139.869 76.4624C140.712 76.4624 141.407 76.2744 141.954 75.8984C142.5 75.5111 142.916 74.9813 143.201 74.3091C143.497 73.6369 143.668 72.8621 143.714 71.9849V69.7461C143.68 69.0283 143.577 68.3846 143.406 67.8149C143.247 67.2339 143.007 66.7383 142.688 66.3281C142.381 65.918 141.993 65.599 141.526 65.3711C141.071 65.1432 140.529 65.0293 139.903 65.0293C139.265 65.0293 138.718 65.1774 138.262 65.4736C137.806 65.7585 137.436 66.1515 137.151 66.6528C136.878 67.1541 136.673 67.7466 136.536 68.4302C136.411 69.1024 136.348 69.8315 136.348 70.6177ZM164.358 55.1172L169.554 66.4648L174.749 55.1172H180.337L172.151 70.9424V80H166.956V70.9424L158.753 55.1172H164.358ZM191.121 75.8301V67.5928C191.121 67.0003 191.024 66.4933 190.831 66.0718C190.637 65.6388 190.335 65.3027 189.925 65.0635C189.526 64.8242 189.008 64.7046 188.37 64.7046C187.823 64.7046 187.35 64.8014 186.951 64.9951C186.552 65.1774 186.245 65.4451 186.028 65.7983C185.812 66.1401 185.704 66.5446 185.704 67.0117H180.782C180.782 66.2256 180.964 65.4793 181.329 64.7729C181.693 64.0666 182.223 63.4456 182.918 62.9102C183.613 62.3633 184.439 61.936 185.396 61.6284C186.364 61.3208 187.447 61.167 188.643 61.167C190.079 61.167 191.355 61.4062 192.471 61.8848C193.588 62.3633 194.465 63.0811 195.103 64.0381C195.752 64.9951 196.077 66.1914 196.077 67.627V75.5396C196.077 76.5535 196.14 77.3853 196.265 78.0347C196.39 78.6727 196.573 79.231 196.812 79.7095V80H191.839C191.6 79.4987 191.417 78.8721 191.292 78.1201C191.178 77.3568 191.121 76.5934 191.121 75.8301ZM191.771 68.7378L191.805 71.5234H189.053C188.404 71.5234 187.84 71.5975 187.361 71.7456C186.883 71.8937 186.49 72.1045 186.182 72.3779C185.875 72.64 185.647 72.9476 185.499 73.3008C185.362 73.654 185.293 74.0413 185.293 74.4629C185.293 74.8844 185.39 75.2661 185.584 75.6079C185.778 75.9383 186.057 76.2004 186.421 76.394C186.786 76.5763 187.213 76.6675 187.703 76.6675C188.444 76.6675 189.087 76.5194 189.634 76.2231C190.181 75.9269 190.603 75.5623 190.899 75.1294C191.207 74.6965 191.366 74.2863 191.377 73.8989L192.676 75.9839C192.494 76.451 192.243 76.9352 191.924 77.4365C191.617 77.9378 191.224 78.4106 190.745 78.855C190.267 79.2879 189.691 79.6468 189.019 79.9316C188.347 80.2051 187.549 80.3418 186.626 80.3418C185.453 80.3418 184.388 80.1082 183.431 79.6411C182.485 79.1626 181.733 78.5075 181.175 77.6758C180.628 76.8327 180.354 75.8757 180.354 74.8047C180.354 73.8363 180.537 72.9761 180.901 72.2241C181.266 71.4722 181.801 70.8398 182.508 70.3271C183.226 69.8031 184.12 69.41 185.191 69.1479C186.262 68.8745 187.504 68.7378 188.917 68.7378H191.771ZM204.673 53.75V80H199.751V53.75H204.673ZM203.973 70.105H202.623C202.634 68.8175 202.805 67.6326 203.135 66.5503C203.466 65.4565 203.938 64.5109 204.554 63.7134C205.169 62.9045 205.904 62.2778 206.758 61.8335C207.624 61.3892 208.581 61.167 209.629 61.167C210.541 61.167 211.367 61.298 212.107 61.5601C212.859 61.8107 213.503 62.2209 214.039 62.7905C214.585 63.3488 215.007 64.0837 215.303 64.9951C215.599 65.9066 215.748 67.0117 215.748 68.3105V80H210.792V68.2764C210.792 67.4561 210.672 66.8123 210.433 66.3452C210.205 65.8667 209.869 65.5306 209.424 65.3369C208.991 65.1318 208.456 65.0293 207.818 65.0293C207.111 65.0293 206.508 65.1603 206.006 65.4224C205.516 65.6844 205.123 66.049 204.827 66.5161C204.531 66.9718 204.314 67.5073 204.178 68.1226C204.041 68.7378 203.973 69.3986 203.973 70.105ZM224.976 77.915L229.881 61.5088H235.162L227.728 82.7856C227.568 83.2528 227.352 83.7541 227.078 84.2896C226.816 84.825 226.457 85.332 226.001 85.8105C225.557 86.3005 224.993 86.6992 224.31 87.0068C223.637 87.3145 222.811 87.4683 221.832 87.4683C221.364 87.4683 220.983 87.4398 220.687 87.3828C220.39 87.3258 220.037 87.2461 219.627 87.1436V83.5376C219.752 83.5376 219.883 83.5376 220.02 83.5376C220.157 83.549 220.288 83.5547 220.413 83.5547C221.062 83.5547 221.592 83.4806 222.002 83.3325C222.413 83.1844 222.743 82.9565 222.994 82.6489C223.244 82.3527 223.444 81.9653 223.592 81.4868L224.976 77.915ZM222.925 61.5088L226.941 74.9072L227.642 80.1196L224.292 80.4785L217.645 61.5088H222.925ZM246.834 75.8301V67.5928C246.834 67.0003 246.737 66.4933 246.543 66.0718C246.35 65.6388 246.048 65.3027 245.638 65.0635C245.239 64.8242 244.721 64.7046 244.083 64.7046C243.536 64.7046 243.063 64.8014 242.664 64.9951C242.265 65.1774 241.958 65.4451 241.741 65.7983C241.525 66.1401 241.417 66.5446 241.417 67.0117H236.495C236.495 66.2256 236.677 65.4793 237.042 64.7729C237.406 64.0666 237.936 63.4456 238.631 62.9102C239.326 62.3633 240.152 61.936 241.109 61.6284C242.077 61.3208 243.16 61.167 244.356 61.167C245.792 61.167 247.068 61.4062 248.184 61.8848C249.301 62.3633 250.178 63.0811 250.816 64.0381C251.465 64.9951 251.79 66.1914 251.79 67.627V75.5396C251.79 76.5535 251.853 77.3853 251.978 78.0347C252.103 78.6727 252.286 79.231 252.525 79.7095V80H247.552C247.312 79.4987 247.13 78.8721 247.005 78.1201C246.891 77.3568 246.834 76.5934 246.834 75.8301ZM247.483 68.7378L247.518 71.5234H244.766C244.117 71.5234 243.553 71.5975 243.074 71.7456C242.596 71.8937 242.203 72.1045 241.895 72.3779C241.587 72.64 241.36 72.9476 241.211 73.3008C241.075 73.654 241.006 74.0413 241.006 74.4629C241.006 74.8844 241.103 75.2661 241.297 75.6079C241.491 75.9383 241.77 76.2004 242.134 76.394C242.499 76.5763 242.926 76.6675 243.416 76.6675C244.157 76.6675 244.8 76.5194 245.347 76.2231C245.894 75.9269 246.316 75.5623 246.612 75.1294C246.919 74.6965 247.079 74.2863 247.09 73.8989L248.389 75.9839C248.207 76.451 247.956 76.9352 247.637 77.4365C247.33 77.9378 246.937 78.4106 246.458 78.855C245.979 79.2879 245.404 79.6468 244.732 79.9316C244.06 80.2051 243.262 80.3418 242.339 80.3418C241.166 80.3418 240.101 80.1082 239.144 79.6411C238.198 79.1626 237.446 78.5075 236.888 77.6758C236.341 76.8327 236.067 75.8757 236.067 74.8047C236.067 73.8363 236.25 72.9761 236.614 72.2241C236.979 71.4722 237.514 70.8398 238.221 70.3271C238.938 69.8031 239.833 69.41 240.904 69.1479C241.975 68.8745 243.217 68.7378 244.629 68.7378H247.483Z" fill="#888888"/>
<rect x="92" y="181" width="1179" height="80" rx="13.3333" fill="white"/>
<rect x="107" y="196" width="208" height="49.3333" rx="4.66667" fill="#3E3E3E" fill-opacity="0.84" stroke="#888888" stroke-width="4"/>
<path d="M171.823 212.833H177.792C178.958 212.833 179.972 213.007 180.833 213.354C181.694 213.701 182.358 214.215 182.823 214.896C183.295 215.576 183.531 216.417 183.531 217.417C183.531 218.285 183.396 219.01 183.125 219.594C182.854 220.177 182.476 220.66 181.99 221.042C181.51 221.417 180.951 221.726 180.312 221.969L179.115 222.646H174.104L174.083 219.823H177.792C178.257 219.823 178.642 219.74 178.948 219.573C179.253 219.406 179.483 219.17 179.635 218.865C179.795 218.552 179.875 218.181 179.875 217.75C179.875 217.312 179.795 216.937 179.635 216.625C179.476 216.312 179.24 216.073 178.927 215.906C178.622 215.74 178.243 215.656 177.792 215.656H175.479V228H171.823V212.833ZM180.125 228L176.771 221.292L180.646 221.271L184.042 227.844V228H180.125ZM191.031 228.208C190.115 228.208 189.295 228.066 188.573 227.781C187.851 227.49 187.24 227.09 186.74 226.583C186.247 226.076 185.868 225.493 185.604 224.833C185.347 224.174 185.219 223.476 185.219 222.74V222.344C185.219 221.517 185.333 220.753 185.562 220.052C185.792 219.344 186.132 218.726 186.583 218.198C187.035 217.67 187.601 217.26 188.281 216.969C188.962 216.67 189.753 216.521 190.656 216.521C191.455 216.521 192.17 216.649 192.802 216.906C193.434 217.163 193.969 217.531 194.406 218.01C194.851 218.49 195.187 219.069 195.417 219.75C195.653 220.431 195.771 221.194 195.771 222.042V223.469H186.562V221.271H192.344V221C192.351 220.625 192.285 220.306 192.146 220.042C192.014 219.778 191.819 219.576 191.562 219.437C191.306 219.299 190.993 219.229 190.625 219.229C190.243 219.229 189.927 219.312 189.677 219.479C189.434 219.646 189.243 219.875 189.104 220.167C188.972 220.451 188.878 220.781 188.823 221.156C188.767 221.531 188.74 221.927 188.74 222.344V222.74C188.74 223.156 188.795 223.535 188.906 223.875C189.024 224.215 189.191 224.507 189.406 224.75C189.628 224.986 189.892 225.17 190.198 225.302C190.51 225.434 190.865 225.5 191.26 225.5C191.74 225.5 192.212 225.41 192.677 225.229C193.142 225.049 193.542 224.75 193.875 224.333L195.469 226.229C195.24 226.556 194.913 226.872 194.49 227.177C194.073 227.483 193.573 227.733 192.99 227.927C192.406 228.115 191.753 228.208 191.031 228.208ZM203.052 225.167V220.521C203.052 220.201 203.007 219.927 202.917 219.698C202.826 219.469 202.684 219.292 202.49 219.167C202.295 219.035 202.035 218.969 201.708 218.969C201.444 218.969 201.219 219.014 201.031 219.104C200.844 219.194 200.701 219.33 200.604 219.51C200.507 219.691 200.458 219.92 200.458 220.198H196.948C196.948 219.677 197.062 219.194 197.292 218.75C197.528 218.299 197.861 217.906 198.292 217.573C198.729 217.24 199.25 216.983 199.854 216.802C200.465 216.615 201.146 216.521 201.896 216.521C202.792 216.521 203.59 216.67 204.292 216.969C205 217.267 205.559 217.715 205.969 218.312C206.378 218.903 206.583 219.646 206.583 220.542V225.156C206.583 225.892 206.625 226.451 206.708 226.833C206.792 227.208 206.91 227.538 207.062 227.823V228H203.542C203.375 227.653 203.25 227.229 203.167 226.729C203.09 226.222 203.052 225.701 203.052 225.167ZM203.479 221.115L203.5 222.99H201.948C201.622 222.99 201.344 223.035 201.115 223.125C200.892 223.215 200.712 223.34 200.573 223.5C200.441 223.653 200.344 223.826 200.281 224.021C200.226 224.215 200.198 224.42 200.198 224.635C200.198 224.844 200.247 225.031 200.344 225.198C200.448 225.358 200.587 225.483 200.76 225.573C200.934 225.663 201.128 225.708 201.344 225.708C201.733 225.708 202.062 225.635 202.333 225.49C202.611 225.337 202.823 225.153 202.969 224.937C203.115 224.722 203.187 224.521 203.187 224.333L203.958 225.771C203.819 226.049 203.66 226.33 203.479 226.615C203.306 226.899 203.087 227.163 202.823 227.406C202.566 227.642 202.25 227.837 201.875 227.99C201.5 228.135 201.045 228.208 200.51 228.208C199.816 228.208 199.177 228.066 198.594 227.781C198.017 227.497 197.556 227.101 197.208 226.594C196.861 226.08 196.687 225.49 196.687 224.823C196.687 224.24 196.792 223.719 197 223.26C197.215 222.802 197.538 222.413 197.969 222.094C198.399 221.774 198.948 221.531 199.615 221.365C200.281 221.198 201.066 221.115 201.969 221.115H203.479ZM213.292 225.5C213.618 225.5 213.896 225.441 214.125 225.323C214.361 225.198 214.538 225.024 214.656 224.802C214.781 224.573 214.84 224.299 214.833 223.979H218.135C218.142 224.826 217.934 225.569 217.51 226.208C217.094 226.84 216.524 227.333 215.802 227.687C215.087 228.035 214.278 228.208 213.375 228.208C212.493 228.208 211.722 228.066 211.062 227.781C210.403 227.49 209.851 227.087 209.406 226.573C208.969 226.052 208.639 225.444 208.417 224.75C208.201 224.056 208.094 223.302 208.094 222.49V222.25C208.094 221.437 208.201 220.684 208.417 219.99C208.639 219.288 208.969 218.681 209.406 218.167C209.851 217.646 210.399 217.243 211.052 216.958C211.712 216.667 212.479 216.521 213.354 216.521C214.292 216.521 215.118 216.698 215.833 217.052C216.556 217.406 217.122 217.92 217.531 218.594C217.941 219.267 218.142 220.083 218.135 221.042H214.833C214.84 220.701 214.788 220.396 214.677 220.125C214.566 219.854 214.392 219.639 214.156 219.479C213.927 219.312 213.632 219.229 213.271 219.229C212.91 219.229 212.618 219.309 212.396 219.469C212.174 219.628 212.003 219.851 211.885 220.135C211.774 220.413 211.698 220.733 211.656 221.094C211.622 221.455 211.604 221.84 211.604 222.25V222.49C211.604 222.906 211.622 223.299 211.656 223.667C211.698 224.028 211.778 224.347 211.896 224.625C212.014 224.896 212.184 225.111 212.406 225.271C212.628 225.424 212.924 225.5 213.292 225.5ZM225.573 216.729V219.167H218.781V216.729H225.573ZM220.208 213.927H223.719V224.323C223.719 224.622 223.753 224.854 223.823 225.021C223.892 225.181 224.01 225.295 224.177 225.365C224.351 225.427 224.58 225.458 224.865 225.458C225.066 225.458 225.233 225.455 225.365 225.448C225.497 225.434 225.622 225.417 225.74 225.396V227.906C225.441 228.003 225.128 228.076 224.802 228.125C224.476 228.181 224.128 228.208 223.76 228.208C223.01 228.208 222.368 228.09 221.833 227.854C221.306 227.618 220.903 227.247 220.625 226.74C220.347 226.233 220.208 225.573 220.208 224.76V213.927ZM233.167 223.24V212.833H236.812V223.24C236.812 224.253 236.58 225.132 236.115 225.875C235.656 226.618 235.031 227.194 234.24 227.604C233.455 228.007 232.573 228.208 231.594 228.208C230.58 228.208 229.677 228.038 228.885 227.698C228.101 227.358 227.483 226.833 227.031 226.125C226.587 225.417 226.365 224.514 226.365 223.417H230.031C230.031 223.931 230.09 224.333 230.208 224.625C230.326 224.91 230.5 225.111 230.729 225.229C230.965 225.34 231.253 225.396 231.594 225.396C231.927 225.396 232.208 225.312 232.437 225.146C232.674 224.972 232.854 224.726 232.979 224.406C233.104 224.08 233.167 223.691 233.167 223.24ZM246.948 223.969C246.948 223.733 246.913 223.521 246.844 223.333C246.774 223.139 246.646 222.958 246.458 222.792C246.271 222.625 246 222.458 245.646 222.292C245.299 222.118 244.84 221.937 244.271 221.75C243.604 221.528 242.962 221.278 242.344 221C241.726 220.715 241.174 220.385 240.687 220.01C240.201 219.628 239.816 219.184 239.531 218.677C239.247 218.163 239.104 217.566 239.104 216.885C239.104 216.233 239.25 215.646 239.542 215.125C239.833 214.597 240.24 214.149 240.76 213.781C241.288 213.406 241.906 213.122 242.615 212.927C243.323 212.726 244.097 212.625 244.937 212.625C246.049 212.625 247.028 212.819 247.875 213.208C248.729 213.59 249.396 214.135 249.875 214.844C250.361 215.545 250.604 216.375 250.604 217.333H246.969C246.969 216.951 246.889 216.615 246.729 216.323C246.576 216.031 246.344 215.802 246.031 215.635C245.719 215.469 245.326 215.385 244.854 215.385C244.396 215.385 244.01 215.455 243.698 215.594C243.385 215.733 243.149 215.92 242.99 216.156C242.83 216.385 242.75 216.639 242.75 216.917C242.75 217.146 242.812 217.354 242.937 217.542C243.069 217.722 243.253 217.892 243.49 218.052C243.733 218.212 244.024 218.365 244.365 218.51C244.712 218.656 245.101 218.799 245.531 218.937C246.337 219.194 247.052 219.483 247.677 219.802C248.309 220.115 248.84 220.472 249.271 220.875C249.708 221.271 250.038 221.722 250.26 222.229C250.49 222.736 250.604 223.309 250.604 223.948C250.604 224.628 250.472 225.233 250.208 225.76C249.944 226.288 249.566 226.736 249.073 227.104C248.58 227.465 247.99 227.74 247.302 227.927C246.615 228.115 245.847 228.208 245 228.208C244.222 228.208 243.455 228.111 242.698 227.917C241.948 227.715 241.267 227.41 240.656 227C240.045 226.583 239.556 226.052 239.187 225.406C238.826 224.753 238.646 223.979 238.646 223.083H242.312C242.312 223.528 242.372 223.903 242.49 224.208C242.608 224.514 242.781 224.76 243.01 224.948C243.24 225.128 243.521 225.26 243.854 225.344C244.187 225.42 244.569 225.458 245 225.458C245.465 225.458 245.84 225.392 246.125 225.26C246.41 225.122 246.618 224.941 246.75 224.719C246.882 224.49 246.948 224.24 246.948 223.969Z" fill="white"/>
<rect x="339" y="196" width="208" height="49.3333" rx="4.66667" fill="#3E3E3E" fill-opacity="0.84" stroke="#888888" stroke-width="4"/>
<path d="M418.844 212.833V228H415.198L409.833 218.562V228H406.177V212.833H409.833L415.198 222.271V212.833H418.844ZM420.552 222.479V222.26C420.552 221.434 420.67 220.674 420.906 219.979C421.142 219.278 421.49 218.67 421.948 218.156C422.406 217.642 422.972 217.243 423.646 216.958C424.319 216.667 425.097 216.521 425.979 216.521C426.868 216.521 427.649 216.667 428.323 216.958C429.003 217.243 429.573 217.642 430.031 218.156C430.49 218.67 430.837 219.278 431.073 219.979C431.309 220.674 431.427 221.434 431.427 222.26V222.479C431.427 223.299 431.309 224.059 431.073 224.76C430.837 225.455 430.49 226.062 430.031 226.583C429.573 227.097 429.007 227.497 428.333 227.781C427.66 228.066 426.882 228.208 426 228.208C425.118 228.208 424.337 228.066 423.656 227.781C422.976 227.497 422.406 227.097 421.948 226.583C421.49 226.062 421.142 225.455 420.906 224.76C420.67 224.059 420.552 223.299 420.552 222.479ZM424.062 222.26V222.479C424.062 222.903 424.094 223.299 424.156 223.667C424.219 224.035 424.323 224.358 424.469 224.635C424.615 224.906 424.812 225.118 425.062 225.271C425.312 225.424 425.625 225.5 426 225.5C426.368 225.5 426.674 225.424 426.917 225.271C427.167 225.118 427.365 224.906 427.51 224.635C427.656 224.358 427.76 224.035 427.823 223.667C427.885 223.299 427.917 222.903 427.917 222.479V222.26C427.917 221.851 427.885 221.465 427.823 221.104C427.76 220.736 427.656 220.413 427.51 220.135C427.365 219.851 427.167 219.628 426.917 219.469C426.667 219.309 426.354 219.229 425.979 219.229C425.611 219.229 425.302 219.309 425.052 219.469C424.809 219.628 424.615 219.851 424.469 220.135C424.323 220.413 424.219 220.736 424.156 221.104C424.094 221.465 424.062 221.851 424.062 222.26ZM439.469 225.417V212H443V228H439.833L439.469 225.417ZM432.552 222.5V222.281C432.552 221.427 432.646 220.649 432.833 219.948C433.021 219.24 433.299 218.632 433.667 218.125C434.035 217.611 434.493 217.215 435.042 216.937C435.59 216.66 436.222 216.521 436.938 216.521C437.576 216.521 438.135 216.67 438.615 216.969C439.094 217.26 439.503 217.67 439.844 218.198C440.184 218.726 440.462 219.344 440.677 220.052C440.892 220.753 441.056 221.51 441.167 222.323V222.583C441.056 223.347 440.892 224.069 440.677 224.75C440.462 225.424 440.184 226.021 439.844 226.542C439.503 227.062 439.09 227.472 438.604 227.771C438.125 228.063 437.563 228.208 436.917 228.208C436.201 228.208 435.569 228.066 435.021 227.781C434.479 227.497 434.024 227.097 433.656 226.583C433.295 226.069 433.021 225.465 432.833 224.771C432.646 224.076 432.552 223.319 432.552 222.5ZM436.063 222.281V222.5C436.063 222.924 436.09 223.316 436.146 223.677C436.201 224.038 436.295 224.358 436.427 224.635C436.566 224.906 436.747 225.118 436.969 225.271C437.198 225.424 437.479 225.5 437.813 225.5C438.264 225.5 438.635 225.392 438.927 225.177C439.226 224.962 439.444 224.656 439.583 224.26C439.729 223.865 439.792 223.399 439.771 222.865V222.042C439.785 221.583 439.753 221.181 439.677 220.833C439.601 220.479 439.479 220.184 439.313 219.948C439.153 219.712 438.948 219.535 438.698 219.417C438.455 219.292 438.167 219.229 437.833 219.229C437.507 219.229 437.229 219.306 437 219.458C436.778 219.611 436.597 219.826 436.458 220.104C436.319 220.375 436.219 220.698 436.156 221.073C436.094 221.441 436.063 221.844 436.063 222.281ZM450.448 228.208C449.531 228.208 448.712 228.066 447.99 227.781C447.267 227.49 446.656 227.09 446.156 226.583C445.663 226.076 445.285 225.493 445.021 224.833C444.764 224.174 444.635 223.476 444.635 222.74V222.344C444.635 221.517 444.75 220.753 444.979 220.052C445.208 219.344 445.549 218.726 446 218.198C446.451 217.67 447.017 217.26 447.698 216.969C448.378 216.67 449.17 216.521 450.073 216.521C450.872 216.521 451.587 216.649 452.219 216.906C452.851 217.163 453.385 217.531 453.823 218.01C454.267 218.49 454.604 219.069 454.833 219.75C455.069 220.431 455.188 221.194 455.188 222.042V223.469H445.979V221.271H451.76V221C451.767 220.625 451.701 220.306 451.563 220.042C451.431 219.778 451.236 219.576 450.979 219.437C450.722 219.299 450.41 219.229 450.042 219.229C449.66 219.229 449.344 219.312 449.094 219.479C448.851 219.646 448.66 219.875 448.521 220.167C448.389 220.451 448.295 220.781 448.24 221.156C448.184 221.531 448.156 221.927 448.156 222.344V222.74C448.156 223.156 448.212 223.535 448.323 223.875C448.441 224.215 448.608 224.507 448.823 224.75C449.045 224.986 449.309 225.17 449.615 225.302C449.927 225.434 450.281 225.5 450.677 225.5C451.156 225.5 451.628 225.41 452.094 225.229C452.559 225.049 452.958 224.75 453.292 224.333L454.885 226.229C454.656 226.556 454.33 226.872 453.906 227.177C453.49 227.483 452.99 227.733 452.406 227.927C451.823 228.115 451.17 228.208 450.448 228.208ZM462.813 223.24V212.833H466.458V223.24C466.458 224.253 466.226 225.132 465.76 225.875C465.302 226.618 464.677 227.194 463.885 227.604C463.101 228.007 462.219 228.208 461.24 228.208C460.226 228.208 459.323 228.038 458.531 227.698C457.747 227.358 457.128 226.833 456.677 226.125C456.233 225.417 456.01 224.514 456.01 223.417H459.677C459.677 223.931 459.736 224.333 459.854 224.625C459.972 224.91 460.146 225.111 460.375 225.229C460.611 225.34 460.899 225.396 461.24 225.396C461.573 225.396 461.854 225.312 462.083 225.146C462.319 224.972 462.5 224.726 462.625 224.406C462.75 224.08 462.813 223.691 462.813 223.24ZM476.594 223.969C476.594 223.733 476.559 223.521 476.49 223.333C476.42 223.139 476.292 222.958 476.104 222.792C475.917 222.625 475.646 222.458 475.292 222.292C474.944 222.118 474.486 221.937 473.917 221.75C473.25 221.528 472.608 221.278 471.99 221C471.372 220.715 470.819 220.385 470.333 220.01C469.847 219.628 469.462 219.184 469.177 218.677C468.892 218.163 468.75 217.566 468.75 216.885C468.75 216.233 468.896 215.646 469.188 215.125C469.479 214.597 469.885 214.149 470.406 213.781C470.934 213.406 471.552 213.122 472.26 212.927C472.969 212.726 473.743 212.625 474.583 212.625C475.694 212.625 476.674 212.819 477.521 213.208C478.375 213.59 479.042 214.135 479.521 214.844C480.007 215.545 480.25 216.375 480.25 217.333H476.615C476.615 216.951 476.535 216.615 476.375 216.323C476.222 216.031 475.99 215.802 475.677 215.635C475.365 215.469 474.972 215.385 474.5 215.385C474.042 215.385 473.656 215.455 473.344 215.594C473.031 215.733 472.795 215.92 472.635 216.156C472.476 216.385 472.396 216.639 472.396 216.917C472.396 217.146 472.458 217.354 472.583 217.542C472.715 217.722 472.899 217.892 473.135 218.052C473.378 218.212 473.67 218.365 474.01 218.51C474.358 218.656 474.747 218.799 475.177 218.937C475.983 219.194 476.698 219.483 477.323 219.802C477.955 220.115 478.486 220.472 478.917 220.875C479.354 221.271 479.684 221.722 479.906 222.229C480.135 222.736 480.25 223.309 480.25 223.948C480.25 224.628 480.118 225.233 479.854 225.76C479.59 226.288 479.212 226.736 478.719 227.104C478.226 227.465 477.635 227.74 476.948 227.927C476.26 228.115 475.493 228.208 474.646 228.208C473.868 228.208 473.101 228.111 472.344 227.917C471.594 227.715 470.913 227.41 470.302 227C469.691 226.583 469.201 226.052 468.833 225.406C468.472 224.753 468.292 223.979 468.292 223.083H471.958C471.958 223.528 472.017 223.903 472.135 224.208C472.253 224.514 472.427 224.76 472.656 224.948C472.885 225.128 473.167 225.26 473.5 225.344C473.833 225.42 474.215 225.458 474.646 225.458C475.111 225.458 475.486 225.392 475.771 225.26C476.056 225.122 476.264 224.941 476.396 224.719C476.528 224.49 476.594 224.24 476.594 223.969Z" fill="white"/>
<rect x="571" y="196" width="208" height="49.3333" rx="4.66667" fill="#3E3E3E" fill-opacity="0.84" stroke="#888888" stroke-width="4"/>
<path d="M624.479 222.854H620.708V220.031H624.479C624.993 220.031 625.41 219.944 625.729 219.771C626.049 219.597 626.281 219.358 626.427 219.052C626.58 218.74 626.656 218.389 626.656 218C626.656 217.583 626.58 217.198 626.427 216.844C626.281 216.49 626.049 216.205 625.729 215.99C625.41 215.767 624.993 215.656 624.479 215.656H622.083V228H618.427V212.833H624.479C625.694 212.833 626.74 213.056 627.615 213.5C628.497 213.944 629.174 214.556 629.646 215.333C630.118 216.104 630.354 216.986 630.354 217.979C630.354 218.958 630.118 219.812 629.646 220.542C629.174 221.271 628.497 221.84 627.615 222.25C626.74 222.653 625.694 222.854 624.479 222.854ZM631.573 222.479V222.26C631.573 221.434 631.691 220.674 631.927 219.979C632.163 219.278 632.51 218.67 632.969 218.156C633.427 217.642 633.993 217.243 634.667 216.958C635.34 216.667 636.118 216.521 637 216.521C637.889 216.521 638.67 216.667 639.344 216.958C640.024 217.243 640.594 217.642 641.052 218.156C641.51 218.67 641.858 219.278 642.094 219.979C642.33 220.674 642.448 221.434 642.448 222.26V222.479C642.448 223.299 642.33 224.059 642.094 224.76C641.858 225.455 641.51 226.062 641.052 226.583C640.594 227.097 640.028 227.497 639.354 227.781C638.681 228.066 637.903 228.208 637.021 228.208C636.139 228.208 635.358 228.066 634.677 227.781C633.997 227.497 633.427 227.097 632.969 226.583C632.51 226.062 632.163 225.455 631.927 224.76C631.691 224.059 631.573 223.299 631.573 222.479ZM635.083 222.26V222.479C635.083 222.903 635.115 223.299 635.177 223.667C635.24 224.035 635.344 224.358 635.49 224.635C635.635 224.906 635.833 225.118 636.083 225.271C636.333 225.424 636.646 225.5 637.021 225.5C637.389 225.5 637.694 225.424 637.937 225.271C638.187 225.118 638.385 224.906 638.531 224.635C638.677 224.358 638.781 224.035 638.844 223.667C638.906 223.299 638.937 222.903 638.937 222.479V222.26C638.937 221.851 638.906 221.465 638.844 221.104C638.781 220.736 638.677 220.413 638.531 220.135C638.385 219.851 638.187 219.628 637.937 219.469C637.687 219.309 637.375 219.229 637 219.229C636.632 219.229 636.323 219.309 636.073 219.469C635.83 219.628 635.635 219.851 635.49 220.135C635.344 220.413 635.24 220.736 635.177 221.104C635.115 221.465 635.083 221.851 635.083 222.26ZM649.917 224.833C649.917 224.639 649.851 224.472 649.719 224.333C649.594 224.187 649.372 224.056 649.052 223.937C648.733 223.812 648.285 223.687 647.708 223.562C647.16 223.444 646.642 223.288 646.156 223.094C645.677 222.899 645.257 222.663 644.896 222.385C644.535 222.108 644.25 221.778 644.042 221.396C643.84 221.014 643.74 220.576 643.74 220.083C643.74 219.604 643.84 219.153 644.042 218.729C644.25 218.299 644.552 217.92 644.948 217.594C645.351 217.26 645.84 217 646.417 216.812C646.993 216.618 647.649 216.521 648.385 216.521C649.399 216.521 650.274 216.677 651.01 216.99C651.747 217.295 652.312 217.726 652.708 218.281C653.111 218.83 653.312 219.465 653.312 220.187H649.802C649.802 219.903 649.753 219.66 649.656 219.458C649.566 219.257 649.417 219.104 649.208 219C649 218.889 648.722 218.833 648.375 218.833C648.132 218.833 647.91 218.878 647.708 218.969C647.514 219.059 647.358 219.184 647.24 219.344C647.122 219.503 647.062 219.691 647.062 219.906C647.062 220.059 647.097 220.198 647.167 220.323C647.243 220.441 647.358 220.552 647.51 220.656C647.663 220.753 647.858 220.844 648.094 220.927C648.33 221.003 648.615 221.073 648.948 221.135C649.705 221.274 650.413 221.472 651.073 221.729C651.733 221.986 652.267 222.351 652.677 222.823C653.094 223.295 653.302 223.931 653.302 224.729C653.302 225.229 653.187 225.691 652.958 226.115C652.729 226.531 652.399 226.899 651.969 227.219C651.538 227.531 651.021 227.774 650.417 227.948C649.812 228.122 649.132 228.208 648.375 228.208C647.299 228.208 646.389 228.017 645.646 227.635C644.903 227.247 644.34 226.76 643.958 226.177C643.583 225.587 643.396 224.99 643.396 224.385H646.667C646.681 224.733 646.764 225.017 646.917 225.24C647.076 225.462 647.288 225.625 647.552 225.729C647.816 225.833 648.122 225.885 648.469 225.885C648.788 225.885 649.052 225.84 649.26 225.75C649.476 225.66 649.639 225.538 649.75 225.385C649.861 225.226 649.917 225.042 649.917 224.833ZM660.885 216.729V219.167H654.094V216.729H660.885ZM655.521 213.927H659.031V224.323C659.031 224.622 659.066 224.854 659.135 225.021C659.205 225.181 659.323 225.295 659.49 225.365C659.663 225.427 659.892 225.458 660.177 225.458C660.378 225.458 660.545 225.455 660.677 225.448C660.809 225.434 660.934 225.417 661.052 225.396V227.906C660.753 228.003 660.441 228.076 660.115 228.125C659.788 228.181 659.441 228.208 659.073 228.208C658.323 228.208 657.681 228.09 657.146 227.854C656.618 227.618 656.215 227.247 655.937 226.74C655.66 226.233 655.521 225.573 655.521 224.76V213.927ZM669.365 216.729H672.552V227.562C672.552 228.604 672.312 229.486 671.833 230.208C671.354 230.938 670.684 231.49 669.823 231.865C668.969 232.247 667.969 232.438 666.823 232.438C666.316 232.438 665.799 232.372 665.271 232.24C664.743 232.115 664.25 231.927 663.792 231.677C663.333 231.427 662.948 231.118 662.635 230.75L664.104 228.688C664.389 229.007 664.747 229.278 665.177 229.5C665.608 229.729 666.115 229.844 666.698 229.844C667.205 229.844 667.628 229.753 667.969 229.573C668.316 229.392 668.58 229.128 668.76 228.781C668.941 228.441 669.031 228.028 669.031 227.542V219.396L669.365 216.729ZM661.875 222.5V222.281C661.875 221.427 661.979 220.649 662.187 219.948C662.403 219.24 662.708 218.632 663.104 218.125C663.507 217.611 663.993 217.215 664.562 216.937C665.132 216.66 665.774 216.521 666.49 216.521C667.26 216.521 667.892 216.67 668.385 216.969C668.885 217.26 669.285 217.67 669.583 218.198C669.889 218.726 670.125 219.344 670.292 220.052C670.465 220.753 670.611 221.51 670.729 222.323V222.583C670.611 223.347 670.448 224.069 670.24 224.75C670.038 225.424 669.774 226.021 669.448 226.542C669.122 227.062 668.712 227.472 668.219 227.771C667.733 228.063 667.149 228.208 666.469 228.208C665.76 228.208 665.122 228.066 664.552 227.781C663.99 227.497 663.507 227.097 663.104 226.583C662.708 226.069 662.403 225.465 662.187 224.771C661.979 224.076 661.875 223.319 661.875 222.5ZM665.385 222.281V222.5C665.385 222.924 665.424 223.316 665.5 223.677C665.583 224.038 665.708 224.358 665.875 224.635C666.042 224.906 666.247 225.118 666.49 225.271C666.74 225.424 667.031 225.5 667.365 225.5C667.872 225.5 668.281 225.392 668.594 225.177C668.906 224.962 669.132 224.656 669.271 224.26C669.41 223.865 669.469 223.399 669.448 222.865V222.042C669.462 221.583 669.431 221.181 669.354 220.833C669.278 220.479 669.156 220.184 668.99 219.948C668.83 219.712 668.615 219.535 668.344 219.417C668.08 219.292 667.76 219.229 667.385 219.229C667.059 219.229 666.771 219.306 666.521 219.458C666.271 219.611 666.062 219.826 665.896 220.104C665.729 220.375 665.601 220.698 665.51 221.073C665.427 221.441 665.385 221.844 665.385 222.281ZM678.115 219.521V228H674.604V216.729H677.885L678.115 219.521ZM681.448 216.646L681.385 219.906C681.247 219.892 681.059 219.875 680.823 219.854C680.587 219.833 680.389 219.823 680.229 219.823C679.819 219.823 679.465 219.872 679.167 219.969C678.875 220.059 678.632 220.198 678.437 220.385C678.25 220.566 678.111 220.795 678.021 221.073C677.937 221.351 677.899 221.674 677.906 222.042L677.271 221.625C677.271 220.868 677.344 220.181 677.49 219.562C677.642 218.937 677.858 218.399 678.135 217.948C678.413 217.49 678.75 217.139 679.146 216.896C679.542 216.646 679.986 216.521 680.479 216.521C680.653 216.521 680.823 216.531 680.99 216.552C681.163 216.573 681.316 216.604 681.448 216.646ZM687.906 228.208C686.99 228.208 686.17 228.066 685.448 227.781C684.726 227.49 684.115 227.09 683.615 226.583C683.122 226.076 682.743 225.493 682.479 224.833C682.222 224.174 682.094 223.476 682.094 222.74V222.344C682.094 221.517 682.208 220.753 682.437 220.052C682.667 219.344 683.007 218.726 683.458 218.198C683.91 217.67 684.476 217.26 685.156 216.969C685.837 216.67 686.628 216.521 687.531 216.521C688.33 216.521 689.045 216.649 689.677 216.906C690.309 217.163 690.844 217.531 691.281 218.01C691.726 218.49 692.062 219.069 692.292 219.75C692.528 220.431 692.646 221.194 692.646 222.042V223.469H683.437V221.271H689.219V221C689.226 220.625 689.16 220.306 689.021 220.042C688.889 219.778 688.694 219.576 688.437 219.437C688.181 219.299 687.868 219.229 687.5 219.229C687.118 219.229 686.802 219.312 686.552 219.479C686.309 219.646 686.118 219.875 685.979 220.167C685.847 220.451 685.753 220.781 685.698 221.156C685.642 221.531 685.615 221.927 685.615 222.344V222.74C685.615 223.156 685.67 223.535 685.781 223.875C685.899 224.215 686.066 224.507 686.281 224.75C686.503 224.986 686.767 225.17 687.073 225.302C687.385 225.434 687.74 225.5 688.135 225.5C688.615 225.5 689.087 225.41 689.552 225.229C690.017 225.049 690.417 224.75 690.75 224.333L692.344 226.229C692.115 226.556 691.788 226.872 691.365 227.177C690.948 227.483 690.448 227.733 689.865 227.927C689.281 228.115 688.628 228.208 687.906 228.208ZM702.052 223.969C702.052 223.733 702.017 223.521 701.948 223.333C701.878 223.139 701.75 222.958 701.562 222.792C701.375 222.625 701.104 222.458 700.75 222.292C700.403 222.118 699.944 221.937 699.375 221.75C698.708 221.528 698.066 221.278 697.448 221C696.83 220.715 696.278 220.385 695.792 220.01C695.306 219.628 694.92 219.184 694.635 218.677C694.351 218.163 694.208 217.566 694.208 216.885C694.208 216.233 694.354 215.646 694.646 215.125C694.937 214.597 695.344 214.149 695.865 213.781C696.392 213.406 697.01 213.122 697.719 212.927C698.427 212.726 699.201 212.625 700.042 212.625C701.153 212.625 702.132 212.819 702.979 213.208C703.833 213.59 704.5 214.135 704.979 214.844C705.465 215.545 705.708 216.375 705.708 217.333H702.073C702.073 216.951 701.993 216.615 701.833 216.323C701.681 216.031 701.448 215.802 701.135 215.635C700.823 215.469 700.431 215.385 699.958 215.385C699.5 215.385 699.115 215.455 698.802 215.594C698.49 215.733 698.253 215.92 698.094 216.156C697.934 216.385 697.854 216.639 697.854 216.917C697.854 217.146 697.917 217.354 698.042 217.542C698.174 217.722 698.358 217.892 698.594 218.052C698.837 218.212 699.128 218.365 699.469 218.51C699.816 218.656 700.205 218.799 700.635 218.937C701.441 219.194 702.156 219.483 702.781 219.802C703.413 220.115 703.944 220.472 704.375 220.875C704.812 221.271 705.142 221.722 705.365 222.229C705.594 222.736 705.708 223.309 705.708 223.948C705.708 224.628 705.576 225.233 705.312 225.76C705.049 226.288 704.67 226.736 704.177 227.104C703.684 227.465 703.094 227.74 702.406 227.927C701.719 228.115 700.951 228.208 700.104 228.208C699.326 228.208 698.559 228.111 697.802 227.917C697.052 227.715 696.372 227.41 695.76 227C695.149 226.583 694.66 226.052 694.292 225.406C693.931 224.753 693.75 223.979 693.75 223.083H697.417C697.417 223.528 697.476 223.903 697.594 224.208C697.712 224.514 697.885 224.76 698.115 224.948C698.344 225.128 698.625 225.26 698.958 225.344C699.292 225.42 699.674 225.458 700.104 225.458C700.569 225.458 700.944 225.392 701.229 225.26C701.514 225.122 701.722 224.941 701.854 224.719C701.986 224.49 702.052 224.24 702.052 223.969ZM716.052 225.5L720.281 228.854L718.01 230.771L713.854 227.417L716.052 225.5ZM720.458 220.115V220.729C720.458 221.889 720.295 222.931 719.969 223.854C719.649 224.771 719.191 225.556 718.594 226.208C718.003 226.854 717.306 227.351 716.5 227.698C715.694 228.038 714.806 228.208 713.833 228.208C712.854 228.208 711.958 228.038 711.146 227.698C710.34 227.351 709.639 226.854 709.042 226.208C708.451 225.556 707.993 224.771 707.667 223.854C707.347 222.931 707.188 221.889 707.188 220.729V220.115C707.188 218.955 707.347 217.913 707.667 216.99C707.993 216.066 708.448 215.281 709.031 214.635C709.622 213.983 710.319 213.486 711.125 213.146C711.938 212.799 712.833 212.625 713.813 212.625C714.785 212.625 715.674 212.799 716.479 213.146C717.292 213.486 717.993 213.983 718.583 214.635C719.181 215.281 719.642 216.066 719.969 216.99C720.295 217.913 720.458 218.955 720.458 220.115ZM716.74 220.729V220.094C716.74 219.344 716.674 218.684 716.542 218.115C716.417 217.538 716.229 217.056 715.979 216.667C715.729 216.278 715.42 215.986 715.052 215.792C714.691 215.59 714.278 215.49 713.813 215.49C713.326 215.49 712.903 215.59 712.542 215.792C712.181 215.986 711.878 216.278 711.635 216.667C711.392 217.056 711.208 217.538 711.083 218.115C710.965 218.684 710.906 219.344 710.906 220.094V220.729C710.906 221.472 710.965 222.132 711.083 222.708C711.208 223.278 711.392 223.76 711.635 224.156C711.885 224.552 712.191 224.851 712.552 225.052C712.92 225.253 713.347 225.354 713.833 225.354C714.299 225.354 714.712 225.253 715.073 225.052C715.434 224.851 715.736 224.552 715.979 224.156C716.229 223.76 716.417 223.278 716.542 222.708C716.674 222.132 716.74 221.472 716.74 220.729ZM732.344 225.187V228H724.677V225.187H732.344ZM725.979 212.833V228H722.323V212.833H725.979Z" fill="white"/>
</svg>
