<svg width="1363" height="167" viewBox="0 0 1363 167" fill="none" xmlns="http://www.w3.org/2000/svg">
<rect width="1363" height="167" rx="15" fill="#1E1E1E"/>
<path d="M0 15C0 6.71573 6.71573 0 15 0H37V167H15C6.71573 167 0 160.284 0 152V15Z" fill="#424241"/>
<path d="M100.906 50.9219L93.3945 48.2383V45.0859L103.602 49.375V51.6367L100.906 50.9219ZM93.3945 53.1719L100.918 50.4297L103.602 49.7852V52.0352L93.3945 56.3242V53.1719ZM121.789 52.3398H125.293C125.223 53.4883 124.906 54.5078 124.344 55.3984C123.789 56.2891 123.012 56.9844 122.012 57.4844C121.02 57.9844 119.824 58.2344 118.426 58.2344C117.332 58.2344 116.352 58.0469 115.484 57.6719C114.617 57.2891 113.875 56.7422 113.258 56.0312C112.648 55.3203 112.184 54.4609 111.863 53.4531C111.543 52.4453 111.383 51.3164 111.383 50.0664V48.8828C111.383 47.6328 111.547 46.5039 111.875 45.4961C112.211 44.4805 112.688 43.6172 113.305 42.9062C113.93 42.1953 114.676 41.6484 115.543 41.2656C116.41 40.8828 117.379 40.6914 118.449 40.6914C119.871 40.6914 121.07 40.9492 122.047 41.4648C123.031 41.9805 123.793 42.6914 124.332 43.5977C124.879 44.5039 125.207 45.5352 125.316 46.6914H121.801C121.762 46.0039 121.625 45.4219 121.391 44.9453C121.156 44.4609 120.801 44.0977 120.324 43.8555C119.855 43.6055 119.23 43.4805 118.449 43.4805C117.863 43.4805 117.352 43.5898 116.914 43.8086C116.477 44.0273 116.109 44.3594 115.812 44.8047C115.516 45.25 115.293 45.8125 115.145 46.4922C115.004 47.1641 114.934 47.9531 114.934 48.8594V50.0664C114.934 50.9492 115 51.7266 115.133 52.3984C115.266 53.0625 115.469 53.625 115.742 54.0859C116.023 54.5391 116.383 54.8828 116.82 55.1172C117.266 55.3438 117.801 55.457 118.426 55.457C119.16 55.457 119.766 55.3398 120.242 55.1055C120.719 54.8711 121.082 54.5234 121.332 54.0625C121.59 53.6016 121.742 53.0273 121.789 52.3398ZM126.852 51.7891V51.543C126.852 50.6133 126.984 49.7578 127.25 48.9766C127.516 48.1875 127.902 47.5039 128.41 46.9258C128.918 46.3477 129.543 45.8984 130.285 45.5781C131.027 45.25 131.879 45.0859 132.84 45.0859C133.801 45.0859 134.656 45.25 135.406 45.5781C136.156 45.8984 136.785 46.3477 137.293 46.9258C137.809 47.5039 138.199 48.1875 138.465 48.9766C138.73 49.7578 138.863 50.6133 138.863 51.543V51.7891C138.863 52.7109 138.73 53.5664 138.465 54.3555C138.199 55.1367 137.809 55.8203 137.293 56.4062C136.785 56.9844 136.16 57.4336 135.418 57.7539C134.676 58.0742 133.824 58.2344 132.863 58.2344C131.902 58.2344 131.047 58.0742 130.297 57.7539C129.555 57.4336 128.926 56.9844 128.41 56.4062C127.902 55.8203 127.516 55.1367 127.25 54.3555C126.984 53.5664 126.852 52.7109 126.852 51.7891ZM130.227 51.543V51.7891C130.227 52.3203 130.273 52.8164 130.367 53.2773C130.461 53.7383 130.609 54.1445 130.812 54.4961C131.023 54.8398 131.297 55.1094 131.633 55.3047C131.969 55.5 132.379 55.5977 132.863 55.5977C133.332 55.5977 133.734 55.5 134.07 55.3047C134.406 55.1094 134.676 54.8398 134.879 54.4961C135.082 54.1445 135.23 53.7383 135.324 53.2773C135.426 52.8164 135.477 52.3203 135.477 51.7891V51.543C135.477 51.0273 135.426 50.543 135.324 50.0898C135.23 49.6289 135.078 49.2227 134.867 48.8711C134.664 48.5117 134.395 48.2305 134.059 48.0273C133.723 47.8242 133.316 47.7227 132.84 47.7227C132.363 47.7227 131.957 47.8242 131.621 48.0273C131.293 48.2305 131.023 48.5117 130.812 48.8711C130.609 49.2227 130.461 49.6289 130.367 50.0898C130.273 50.543 130.227 51.0273 130.227 51.543ZM148.426 55.2344V40H151.824V58H148.766L148.426 55.2344ZM140.41 51.8125V51.5664C140.41 50.5977 140.52 49.7188 140.738 48.9297C140.957 48.1328 141.277 47.4492 141.699 46.8789C142.121 46.3086 142.641 45.8672 143.258 45.5547C143.875 45.2422 144.578 45.0859 145.367 45.0859C146.109 45.0859 146.758 45.2422 147.312 45.5547C147.875 45.8672 148.352 46.3125 148.742 46.8906C149.141 47.4609 149.461 48.1367 149.703 48.918C149.945 49.6914 150.121 50.5391 150.23 51.4609V52C150.121 52.8828 149.945 53.7031 149.703 54.4609C149.461 55.2188 149.141 55.8828 148.742 56.4531C148.352 57.0156 147.875 57.4531 147.312 57.7656C146.75 58.0781 146.094 58.2344 145.344 58.2344C144.555 58.2344 143.852 58.0742 143.234 57.7539C142.625 57.4336 142.109 56.9844 141.688 56.4062C141.273 55.8281 140.957 55.1484 140.738 54.3672C140.52 53.5859 140.41 52.7344 140.41 51.8125ZM143.785 51.5664V51.8125C143.785 52.3359 143.824 52.8242 143.902 53.2773C143.988 53.7305 144.125 54.1328 144.312 54.4844C144.508 54.8281 144.758 55.0977 145.062 55.293C145.375 55.4805 145.754 55.5742 146.199 55.5742C146.777 55.5742 147.254 55.4453 147.629 55.1875C148.004 54.9219 148.289 54.5586 148.484 54.0977C148.688 53.6367 148.805 53.1055 148.836 52.5039V50.9688C148.812 50.4766 148.742 50.0352 148.625 49.6445C148.516 49.2461 148.352 48.9062 148.133 48.625C147.922 48.3438 147.656 48.125 147.336 47.9688C147.023 47.8125 146.652 47.7344 146.223 47.7344C145.785 47.7344 145.41 47.8359 145.098 48.0391C144.785 48.2344 144.531 48.5039 144.336 48.8477C144.148 49.1914 144.008 49.5977 143.914 50.0664C143.828 50.5273 143.785 51.0273 143.785 51.5664ZM160.297 58.2344C159.312 58.2344 158.43 58.0781 157.648 57.7656C156.867 57.4453 156.203 57.0039 155.656 56.4414C155.117 55.8789 154.703 55.2266 154.414 54.4844C154.125 53.7344 153.98 52.9375 153.98 52.0938V51.625C153.98 50.6641 154.117 49.7852 154.391 48.9883C154.664 48.1914 155.055 47.5 155.562 46.9141C156.078 46.3281 156.703 45.8789 157.438 45.5664C158.172 45.2461 159 45.0859 159.922 45.0859C160.82 45.0859 161.617 45.2344 162.312 45.5312C163.008 45.8281 163.59 46.25 164.059 46.7969C164.535 47.3438 164.895 48 165.137 48.7656C165.379 49.5234 165.5 50.3672 165.5 51.2969V52.7031H155.422V50.4531H162.184V50.1953C162.184 49.7266 162.098 49.3086 161.926 48.9414C161.762 48.5664 161.512 48.2695 161.176 48.0508C160.84 47.832 160.41 47.7227 159.887 47.7227C159.441 47.7227 159.059 47.8203 158.738 48.0156C158.418 48.2109 158.156 48.4844 157.953 48.8359C157.758 49.1875 157.609 49.6016 157.508 50.0781C157.414 50.5469 157.367 51.0625 157.367 51.625V52.0938C157.367 52.6016 157.438 53.0703 157.578 53.5C157.727 53.9297 157.934 54.3008 158.199 54.6133C158.473 54.9258 158.801 55.168 159.184 55.3398C159.574 55.5117 160.016 55.5977 160.508 55.5977C161.117 55.5977 161.684 55.4805 162.207 55.2461C162.738 55.0039 163.195 54.6406 163.578 54.1562L165.219 55.9375C164.953 56.3203 164.59 56.6875 164.129 57.0391C163.676 57.3906 163.129 57.6797 162.488 57.9062C161.848 58.125 161.117 58.2344 160.297 58.2344ZM171.746 55.293L175.145 40.9375H177.043L177.477 43.3281L173.855 58H171.816L171.746 55.293ZM170 40.9375L172.812 55.293L172.578 58H170.305L166.52 40.9375H170ZM180.465 55.2344L183.242 40.9375H186.723L182.949 58H180.676L180.465 55.2344ZM178.109 40.9375L181.531 55.3516L181.438 58H179.398L175.754 43.3164L176.223 40.9375H178.109ZM191.984 45.3203V58H188.598V45.3203H191.984ZM188.387 42.0156C188.387 41.5234 188.559 41.1172 188.902 40.7969C189.246 40.4766 189.707 40.3164 190.285 40.3164C190.855 40.3164 191.312 40.4766 191.656 40.7969C192.008 41.1172 192.184 41.5234 192.184 42.0156C192.184 42.5078 192.008 42.9141 191.656 43.2344C191.312 43.5547 190.855 43.7148 190.285 43.7148C189.707 43.7148 189.246 43.5547 188.902 43.2344C188.559 42.9141 188.387 42.5078 188.387 42.0156ZM200.984 45.3203V47.7109H193.602V45.3203H200.984ZM195.43 42.1914H198.805V54.1797C198.805 54.5469 198.852 54.8281 198.945 55.0234C199.047 55.2188 199.195 55.3555 199.391 55.4336C199.586 55.5039 199.832 55.5391 200.129 55.5391C200.34 55.5391 200.527 55.5312 200.691 55.5156C200.863 55.4922 201.008 55.4688 201.125 55.4453L201.137 57.9297C200.848 58.0234 200.535 58.0977 200.199 58.1523C199.863 58.207 199.492 58.2344 199.086 58.2344C198.344 58.2344 197.695 58.1133 197.141 57.8711C196.594 57.6211 196.172 57.2227 195.875 56.6758C195.578 56.1289 195.43 55.4102 195.43 54.5195V42.1914ZM206.199 40V58H202.824V40H206.199ZM205.719 51.2148H204.793C204.801 50.332 204.918 49.5195 205.145 48.7773C205.371 48.0273 205.695 47.3789 206.117 46.832C206.539 46.2773 207.043 45.8477 207.629 45.543C208.223 45.2383 208.879 45.0859 209.598 45.0859C210.223 45.0859 210.789 45.1758 211.297 45.3555C211.812 45.5273 212.254 45.8086 212.621 46.1992C212.996 46.582 213.285 47.0859 213.488 47.7109C213.691 48.3359 213.793 49.0938 213.793 49.9844V58H210.395V49.9609C210.395 49.3984 210.312 48.957 210.148 48.6367C209.992 48.3086 209.762 48.0781 209.457 47.9453C209.16 47.8047 208.793 47.7344 208.355 47.7344C207.871 47.7344 207.457 47.8242 207.113 48.0039C206.777 48.1836 206.508 48.4336 206.305 48.7539C206.102 49.0664 205.953 49.4336 205.859 49.8555C205.766 50.2773 205.719 50.7305 205.719 51.2148ZM218.176 40.9375H221.152L225.535 53.4648L229.918 40.9375H232.895L226.73 58H224.34L218.176 40.9375ZM216.57 40.9375H219.535L220.074 53.1484V58H216.57V40.9375ZM231.535 40.9375H234.512V58H230.996V53.1484L231.535 40.9375ZM243.219 58.2344C242.234 58.2344 241.352 58.0781 240.57 57.7656C239.789 57.4453 239.125 57.0039 238.578 56.4414C238.039 55.8789 237.625 55.2266 237.336 54.4844C237.047 53.7344 236.902 52.9375 236.902 52.0938V51.625C236.902 50.6641 237.039 49.7852 237.312 48.9883C237.586 48.1914 237.977 47.5 238.484 46.9141C239 46.3281 239.625 45.8789 240.359 45.5664C241.094 45.2461 241.922 45.0859 242.844 45.0859C243.742 45.0859 244.539 45.2344 245.234 45.5312C245.93 45.8281 246.512 46.25 246.98 46.7969C247.457 47.3438 247.816 48 248.059 48.7656C248.301 49.5234 248.422 50.3672 248.422 51.2969V52.7031H238.344V50.4531H245.105V50.1953C245.105 49.7266 245.02 49.3086 244.848 48.9414C244.684 48.5664 244.434 48.2695 244.098 48.0508C243.762 47.832 243.332 47.7227 242.809 47.7227C242.363 47.7227 241.98 47.8203 241.66 48.0156C241.34 48.2109 241.078 48.4844 240.875 48.8359C240.68 49.1875 240.531 49.6016 240.43 50.0781C240.336 50.5469 240.289 51.0625 240.289 51.625V52.0938C240.289 52.6016 240.359 53.0703 240.5 53.5C240.648 53.9297 240.855 54.3008 241.121 54.6133C241.395 54.9258 241.723 55.168 242.105 55.3398C242.496 55.5117 242.938 55.5977 243.43 55.5977C244.039 55.5977 244.605 55.4805 245.129 55.2461C245.66 55.0039 246.117 54.6406 246.5 54.1562L248.141 55.9375C247.875 56.3203 247.512 56.6875 247.051 57.0391C246.598 57.3906 246.051 57.6797 245.41 57.9062C244.77 58.125 244.039 58.2344 243.219 58.2344Z" fill="#888888"/>
<path d="M109.93 86.0078V118H102.217V86.0078H109.93ZM119.554 86.0078V91.9624H92.813V86.0078H119.554ZM132.012 118.439C130.079 118.439 128.35 118.139 126.827 117.539C125.303 116.923 124.014 116.081 122.959 115.012C121.919 113.942 121.121 112.712 120.564 111.32C120.022 109.929 119.751 108.457 119.751 106.904V106.069C119.751 104.326 119.993 102.714 120.477 101.235C120.96 99.7407 121.678 98.437 122.63 97.3237C123.582 96.2104 124.776 95.3462 126.211 94.731C127.647 94.1011 129.317 93.7861 131.221 93.7861C132.906 93.7861 134.415 94.0571 135.748 94.5991C137.081 95.1411 138.208 95.9175 139.131 96.9282C140.069 97.939 140.779 99.1621 141.263 100.598C141.761 102.033 142.01 103.645 142.01 105.432V108.442H122.586V103.806H134.781V103.234C134.795 102.443 134.656 101.77 134.363 101.213C134.085 100.656 133.675 100.231 133.133 99.9385C132.591 99.6455 131.932 99.499 131.155 99.499C130.35 99.499 129.683 99.6748 129.156 100.026C128.643 100.378 128.24 100.861 127.947 101.477C127.669 102.077 127.471 102.773 127.354 103.564C127.237 104.355 127.178 105.19 127.178 106.069V106.904C127.178 107.783 127.295 108.581 127.53 109.299C127.779 110.017 128.13 110.632 128.584 111.145C129.053 111.643 129.61 112.031 130.254 112.309C130.914 112.587 131.661 112.727 132.496 112.727C133.506 112.727 134.502 112.536 135.484 112.155C136.465 111.774 137.308 111.145 138.011 110.266L141.373 114.265C140.889 114.953 140.201 115.62 139.307 116.264C138.428 116.909 137.374 117.436 136.143 117.846C134.913 118.242 133.536 118.439 132.012 118.439ZM155.062 112.727C155.75 112.727 156.336 112.602 156.819 112.353C157.317 112.089 157.691 111.723 157.94 111.254C158.204 110.771 158.328 110.192 158.313 109.519H165.279C165.293 111.306 164.854 112.873 163.96 114.221C163.082 115.554 161.88 116.594 160.357 117.341C158.848 118.073 157.142 118.439 155.237 118.439C153.377 118.439 151.751 118.139 150.359 117.539C148.968 116.923 147.803 116.074 146.866 114.99C145.943 113.891 145.247 112.609 144.778 111.145C144.324 109.68 144.097 108.09 144.097 106.376V105.871C144.097 104.157 144.324 102.568 144.778 101.103C145.247 99.6235 145.943 98.3418 146.866 97.2578C147.803 96.1592 148.96 95.3096 150.337 94.709C151.729 94.0938 153.348 93.7861 155.193 93.7861C157.171 93.7861 158.914 94.1597 160.423 94.9067C161.946 95.6538 163.14 96.7378 164.004 98.1587C164.869 99.5796 165.293 101.301 165.279 103.322H158.313C158.328 102.604 158.218 101.96 157.984 101.389C157.75 100.817 157.383 100.363 156.885 100.026C156.402 99.6748 155.779 99.499 155.018 99.499C154.256 99.499 153.641 99.6675 153.172 100.004C152.703 100.341 152.344 100.81 152.095 101.411C151.861 101.997 151.7 102.67 151.612 103.432C151.539 104.194 151.502 105.007 151.502 105.871V106.376C151.502 107.255 151.539 108.083 151.612 108.859C151.7 109.621 151.868 110.295 152.117 110.881C152.366 111.452 152.725 111.906 153.194 112.243C153.663 112.565 154.285 112.727 155.062 112.727ZM175.694 84.25V118H168.289V84.25H175.694ZM174.815 105.3L173.079 105.344C173.079 103.674 173.284 102.136 173.694 100.729C174.104 99.3232 174.69 98.1001 175.452 97.0601C176.214 96.02 177.129 95.2144 178.199 94.6431C179.268 94.0718 180.455 93.7861 181.758 93.7861C182.93 93.7861 184 93.9546 184.966 94.2915C185.948 94.6284 186.79 95.1704 187.493 95.9175C188.211 96.6646 188.76 97.6387 189.141 98.8398C189.537 100.041 189.734 101.506 189.734 103.234V118H182.286V103.19C182.286 102.224 182.146 101.477 181.868 100.949C181.604 100.407 181.224 100.034 180.726 99.8286C180.228 99.6089 179.62 99.499 178.902 99.499C178.038 99.499 177.334 99.6455 176.792 99.9385C176.25 100.231 175.833 100.642 175.54 101.169C175.262 101.682 175.071 102.29 174.969 102.993C174.866 103.696 174.815 104.465 174.815 105.3ZM221.88 109.497C221.88 108.999 221.807 108.552 221.661 108.156C221.514 107.746 221.243 107.365 220.848 107.014C220.452 106.662 219.881 106.311 219.134 105.959C218.401 105.593 217.435 105.212 216.233 104.816C214.827 104.348 213.472 103.82 212.168 103.234C210.865 102.634 209.7 101.938 208.675 101.147C207.649 100.341 206.836 99.4038 206.236 98.3345C205.635 97.2505 205.335 95.9907 205.335 94.5552C205.335 93.1782 205.643 91.9404 206.258 90.8418C206.873 89.7285 207.73 88.7837 208.829 88.0073C209.942 87.2163 211.246 86.6157 212.74 86.2056C214.234 85.7808 215.867 85.5684 217.64 85.5684C219.983 85.5684 222.049 85.9785 223.836 86.7988C225.638 87.6045 227.044 88.7544 228.055 90.2485C229.08 91.728 229.593 93.4785 229.593 95.5H221.924C221.924 94.6943 221.756 93.9839 221.419 93.3687C221.097 92.7534 220.606 92.27 219.947 91.9185C219.288 91.5669 218.46 91.3911 217.464 91.3911C216.497 91.3911 215.684 91.5376 215.025 91.8306C214.366 92.1235 213.868 92.519 213.531 93.0171C213.194 93.5005 213.025 94.0352 213.025 94.6211C213.025 95.1045 213.157 95.5439 213.421 95.9395C213.699 96.3203 214.087 96.6792 214.585 97.0161C215.098 97.353 215.713 97.6753 216.431 97.9829C217.164 98.2905 217.984 98.5908 218.892 98.8838C220.591 99.4258 222.1 100.034 223.418 100.708C224.751 101.367 225.872 102.121 226.78 102.971C227.703 103.806 228.399 104.758 228.868 105.827C229.351 106.896 229.593 108.105 229.593 109.453C229.593 110.888 229.314 112.163 228.758 113.276C228.201 114.389 227.403 115.334 226.363 116.11C225.323 116.872 224.078 117.451 222.627 117.846C221.177 118.242 219.559 118.439 217.771 118.439C216.131 118.439 214.512 118.234 212.916 117.824C211.333 117.399 209.898 116.755 208.609 115.891C207.32 115.012 206.287 113.891 205.511 112.529C204.749 111.152 204.368 109.519 204.368 107.629H212.103C212.103 108.566 212.227 109.357 212.476 110.002C212.725 110.646 213.091 111.167 213.575 111.562C214.058 111.943 214.651 112.221 215.354 112.397C216.058 112.558 216.863 112.639 217.771 112.639C218.753 112.639 219.544 112.5 220.145 112.221C220.745 111.928 221.185 111.547 221.463 111.079C221.741 110.595 221.88 110.068 221.88 109.497ZM245.743 94.2256V99.3672H231.417V94.2256H245.743ZM234.427 88.3149H241.832V110.244C241.832 110.874 241.905 111.364 242.051 111.716C242.198 112.053 242.447 112.294 242.798 112.441C243.165 112.573 243.648 112.639 244.249 112.639C244.673 112.639 245.025 112.631 245.303 112.617C245.582 112.587 245.845 112.551 246.094 112.507V117.802C245.464 118.007 244.805 118.161 244.117 118.264C243.428 118.381 242.696 118.439 241.919 118.439C240.337 118.439 238.982 118.19 237.854 117.692C236.741 117.194 235.892 116.411 235.306 115.341C234.72 114.272 234.427 112.88 234.427 111.167V88.3149ZM261.036 112.023V102.224C261.036 101.55 260.94 100.971 260.75 100.488C260.56 100.004 260.259 99.6309 259.849 99.3672C259.439 99.0889 258.89 98.9497 258.201 98.9497C257.645 98.9497 257.168 99.0449 256.773 99.2354C256.377 99.4258 256.077 99.7114 255.872 100.092C255.667 100.473 255.564 100.957 255.564 101.542H248.16C248.16 100.444 248.401 99.4258 248.885 98.4883C249.383 97.5361 250.086 96.7085 250.994 96.0054C251.917 95.3022 253.016 94.7603 254.29 94.3794C255.579 93.9839 257.015 93.7861 258.597 93.7861C260.486 93.7861 262.171 94.1011 263.65 94.731C265.145 95.3608 266.324 96.3057 267.188 97.5654C268.052 98.8105 268.484 100.378 268.484 102.268V112.001C268.484 113.554 268.572 114.733 268.748 115.539C268.924 116.33 269.173 117.026 269.495 117.626V118H262.068C261.717 117.268 261.453 116.374 261.277 115.319C261.116 114.25 261.036 113.151 261.036 112.023ZM261.937 103.476L261.98 107.431H258.707C258.018 107.431 257.432 107.526 256.949 107.717C256.48 107.907 256.099 108.171 255.806 108.508C255.528 108.83 255.323 109.196 255.191 109.606C255.074 110.017 255.015 110.449 255.015 110.903C255.015 111.342 255.118 111.738 255.323 112.089C255.542 112.426 255.835 112.69 256.202 112.88C256.568 113.071 256.978 113.166 257.432 113.166C258.252 113.166 258.948 113.012 259.52 112.705C260.105 112.382 260.552 111.994 260.86 111.54C261.167 111.086 261.321 110.661 261.321 110.266L262.947 113.298C262.654 113.884 262.317 114.477 261.937 115.078C261.57 115.678 261.109 116.235 260.552 116.748C260.01 117.246 259.344 117.656 258.553 117.978C257.762 118.286 256.802 118.439 255.674 118.439C254.209 118.439 252.862 118.139 251.631 117.539C250.416 116.938 249.441 116.103 248.709 115.034C247.977 113.95 247.61 112.705 247.61 111.298C247.61 110.068 247.83 108.969 248.27 108.002C248.724 107.036 249.405 106.215 250.313 105.542C251.221 104.868 252.378 104.355 253.785 104.003C255.191 103.652 256.846 103.476 258.75 103.476H261.937ZM282.635 112.727C283.323 112.727 283.909 112.602 284.393 112.353C284.891 112.089 285.264 111.723 285.513 111.254C285.777 110.771 285.901 110.192 285.887 109.519H292.852C292.867 111.306 292.427 112.873 291.534 114.221C290.655 115.554 289.454 116.594 287.93 117.341C286.421 118.073 284.715 118.439 282.811 118.439C280.95 118.439 279.324 118.139 277.933 117.539C276.541 116.923 275.376 116.074 274.439 114.99C273.516 113.891 272.82 112.609 272.352 111.145C271.897 109.68 271.67 108.09 271.67 106.376V105.871C271.67 104.157 271.897 102.568 272.352 101.103C272.82 99.6235 273.516 98.3418 274.439 97.2578C275.376 96.1592 276.534 95.3096 277.911 94.709C279.302 94.0938 280.921 93.7861 282.767 93.7861C284.744 93.7861 286.487 94.1597 287.996 94.9067C289.52 95.6538 290.713 96.7378 291.578 98.1587C292.442 99.5796 292.867 101.301 292.852 103.322H285.887C285.901 102.604 285.792 101.96 285.557 101.389C285.323 100.817 284.957 100.363 284.458 100.026C283.975 99.6748 283.353 99.499 282.591 99.499C281.829 99.499 281.214 99.6675 280.745 100.004C280.276 100.341 279.917 100.81 279.668 101.411C279.434 101.997 279.273 102.67 279.185 103.432C279.112 104.194 279.075 105.007 279.075 105.871V106.376C279.075 107.255 279.112 108.083 279.185 108.859C279.273 109.621 279.441 110.295 279.69 110.881C279.939 111.452 280.298 111.906 280.767 112.243C281.236 112.565 281.858 112.727 282.635 112.727ZM303.487 84.228V118H296.082V84.228H303.487ZM318.692 94.2256L308.365 106.333L302.959 111.738L299.729 107.036L304.234 101.169L309.815 94.2256H318.692ZM310.76 118L304.41 107.167L309.881 103.278L319.241 118H310.76Z" fill="white"/>
<path d="M1363 15C1363 6.71573 1356.28 0 1348 0H1134V167H1348C1356.28 167 1363 160.284 1363 152V15Z" fill="#3E97FC"/>
<path fill-rule="evenodd" clip-rule="evenodd" d="M1218.5 55C1218.37 55 1218.24 55.0527 1218.15 55.1464C1218.05 55.2402 1218 55.3674 1218 55.5V111.5C1218 111.633 1218.05 111.76 1218.15 111.854C1218.24 111.947 1218.37 112 1218.5 112H1278C1278.13 112 1278.26 111.947 1278.35 111.854C1278.45 111.76 1278.5 111.633 1278.5 111.5V66C1278.5 65.8674 1278.45 65.7402 1278.35 65.6464C1278.26 65.5527 1278.13 65.5 1278 65.5H1248.25C1247.36 65.5 1246.52 65.1045 1245.95 64.4206L1238.09 55H1218.5ZM1213.9 50.9038C1215.12 49.6848 1216.78 49 1218.5 49H1239.5C1240.39 49 1241.23 49.3955 1241.8 50.0794L1249.66 59.5H1278C1279.72 59.5 1281.38 60.1848 1282.6 61.4038C1283.82 62.6228 1284.5 64.2761 1284.5 66V111.5C1284.5 113.224 1283.82 114.877 1282.6 116.096C1281.38 117.315 1279.72 118 1278 118H1218.5C1216.78 118 1215.12 117.315 1213.9 116.096C1212.68 114.877 1212 113.224 1212 111.5V55.5C1212 53.7761 1212.68 52.1228 1213.9 50.9038Z" fill="white"/>
<path fill-rule="evenodd" clip-rule="evenodd" d="M1243.72 77.5251C1245.09 78.892 1245.09 81.108 1243.72 82.4749L1237.45 88.75L1243.72 95.0251C1245.09 96.392 1245.09 98.608 1243.72 99.9749C1242.36 101.342 1240.14 101.342 1238.78 99.9749L1230.03 91.2249C1228.66 89.858 1228.66 87.642 1230.03 86.2751L1238.78 77.5251C1240.14 76.1583 1242.36 76.1583 1243.72 77.5251Z" fill="white"/>
<path fill-rule="evenodd" clip-rule="evenodd" d="M1252.03 99.9749C1250.66 98.608 1250.66 96.392 1252.03 95.0251L1258.3 88.75L1252.03 82.4749C1250.66 81.108 1250.66 78.892 1252.03 77.5251C1253.39 76.1583 1255.61 76.1583 1256.97 77.5251L1265.72 86.2751C1267.09 87.642 1267.09 89.858 1265.72 91.2249L1256.97 99.9749C1255.61 101.342 1253.39 101.342 1252.03 99.9749Z" fill="white"/>
</svg>
